<svg width="300" height="300" viewBox="0 0 300 300" fill="none" xmlns="http://www.w3.org/2000/svg">
<path d="M35.88 165.18C39.57 181.56 53.52 243.24 111.72 268.29C167.88 292.47 240.81 273.36 268.35 225.27C312.51 148.11 220.83 21.7201 181.35 30.9601C167.01 34.3201 155.91 53.5501 136.2 57.8701C105.06 64.7101 85.2 25.6201 62.07 30.9601C35.34 37.1701 23.52 110.58 35.88 165.18Z" fill="#AEDEF1"/>
<path d="M261.66 212.97L89.25 255.57L74.49 243.03L257.1 196.71C261.72 195.54 266.43 198.33 267.6 202.98C268.77 207.36 266.07 211.86 261.66 212.97Z" fill="#2383C6"/>
<path d="M196.86 255.45L124.14 273.09C114.51 269.7 106.59 266.19 102.03 262.32L194.25 238.74C198.36 237.69 202.53 240.18 203.58 244.29C204.81 249.24 201.81 254.25 196.86 255.45Z" fill="#054E72"/>
<path d="M271.38 177.54C271.26 177.54 271.17 177.51 271.08 177.42L269.67 176.16C269.49 175.98 269.46 175.71 269.64 175.53C269.82 175.35 270.09 175.32 270.27 175.5L271.68 176.76C271.86 176.94 271.89 177.21 271.71 177.39C271.62 177.48 271.5 177.54 271.38 177.54Z" fill="#010101"/>
<path d="M276.27 181.98C276.15 181.98 276.06 181.95 275.97 181.86L274.56 180.6C274.38 180.42 274.35 180.15 274.53 179.97C274.71 179.79 274.98 179.76 275.16 179.94L276.57 181.2C276.75 181.38 276.78 181.65 276.6 181.83C276.51 181.92 276.39 181.98 276.27 181.98Z" fill="#010101"/>
<path d="M270.3 182.28C270.18 182.28 270.09 182.25 270 182.16C269.82 181.98 269.79 181.71 269.97 181.53L271.23 180.12C271.41 179.94 271.68 179.91 271.86 180.09C272.04 180.27 272.07 180.54 271.89 180.72L270.63 182.13C270.54 182.22 270.42 182.28 270.3 182.28Z" fill="#010101"/>
<path d="M274.71 177.36C274.59 177.36 274.5 177.33 274.41 177.24C274.23 177.06 274.2 176.79 274.38 176.61L275.64 175.2C275.82 175.02 276.09 174.99 276.27 175.17C276.45 175.35 276.48 175.62 276.3 175.8L275.04 177.21C274.95 177.33 274.83 177.36 274.71 177.36Z" fill="#010101"/>
<path d="M82.9501 70.47C82.8001 70.47 82.6801 70.41 82.5901 70.29L60.5401 38.58C60.3901 38.37 60.4501 38.1 60.6601 37.95C60.8701 37.8 61.1401 37.86 61.2901 38.07L83.3401 69.78C83.4901 69.99 83.4301 70.26 83.2201 70.41C83.1301 70.44 83.0401 70.47 82.9501 70.47Z" fill="#010101"/>
<path d="M77.16 75.0599C77.07 75.0599 77.01 75.0299 76.92 74.9999L53.07 60.7199C52.86 60.5999 52.8 60.3299 52.92 60.0899C53.04 59.8799 53.31 59.8199 53.55 59.9399L77.4 74.2199C77.61 74.3399 77.67 74.6099 77.55 74.8499C77.46 74.9699 77.31 75.0599 77.16 75.0599Z" fill="#010101"/>
<path d="M272.7 167.52C272.46 167.52 272.19 167.49 271.95 167.43C270 167.01 268.71 165.06 269.13 163.05C269.31 162.09 269.88 161.25 270.69 160.71C271.5 160.17 272.46 159.99 273.39 160.2C275.34 160.62 276.63 162.57 276.21 164.58C276.03 165.54 275.46 166.38 274.65 166.92C274.05 167.34 273.39 167.52 272.7 167.52ZM272.64 161.04C272.13 161.04 271.62 161.19 271.17 161.49C270.54 161.91 270.12 162.51 269.97 163.26C269.67 164.76 270.63 166.26 272.1 166.59C272.82 166.74 273.54 166.62 274.14 166.2C274.77 165.78 275.19 165.18 275.34 164.43C275.64 162.93 274.68 161.43 273.21 161.1C273 161.07 272.82 161.04 272.64 161.04Z" fill="#010101"/>
<path d="M108.54 128.61L82.77 128.76L71.79 140.55L96 148.65L108.54 128.61Z" fill="#010101"/>
<path d="M116.4 268.56C111.12 271.92 103.65 269.61 99.7199 263.43L51.1799 186.81L70.1999 174.69L118.83 251.46C122.73 257.58 121.65 265.23 116.4 268.56Z" fill="#2383C6"/>
<path d="M111 270.54C110.16 270.54 109.29 270.45 108.42 270.24C104.82 269.43 101.52 267.03 99.3599 263.64L50.7899 187.05C50.6699 186.84 50.7299 186.57 50.9399 186.42L69.9599 174.3C70.0499 174.24 70.1699 174.21 70.2899 174.24C70.4099 174.27 70.4999 174.33 70.5599 174.45L119.19 251.22C123.18 257.55 122.04 265.5 116.61 268.95C114.99 270 113.04 270.54 111 270.54ZM51.8099 186.93L100.11 263.16C102.12 266.34 105.21 268.59 108.6 269.37C111.3 269.97 114 269.55 116.16 268.17C121.17 264.99 122.19 257.58 118.47 251.7L70.0799 175.32L51.8099 186.93Z" fill="#010101"/>
<path d="M122.67 124.53L65.97 153.42L42.9 171.12L33 183.81L32.94 183.9C31.05 186.06 31.08 191.73 33.15 197.79C35.19 203.79 38.64 208.23 41.46 208.89L41.37 208.92L56.19 212.79L85.05 212.52L148.05 200.07L220.47 223.92L220.98 224.01C202.77 217.8 181.32 189.09 168.3 151.02C155.31 113.01 154.68 77.28 165.27 61.29L123.21 123.72L122.67 124.53Z" fill="white"/>
<path d="M240.09 126.78C256.26 174 253.26 217.74 233.43 224.43C213.6 231.12 184.44 198.27 168.27 151.02C152.1 103.8 155.1 60.0599 174.93 53.3699C194.76 46.6799 223.95 79.5299 240.09 126.78Z" fill="#2383C6"/>
<path d="M228.06 225.75C219.39 225.75 209.34 219.72 199.17 208.26C186.84 194.34 175.71 174.09 167.88 151.17C156.03 116.49 154.08 82.4701 162.93 64.4701C165.87 58.4701 169.86 54.6001 174.81 52.9501C184.56 49.6501 196.74 55.5301 209.16 69.4501C209.34 69.6301 209.31 69.9302 209.13 70.0802C208.95 70.2602 208.65 70.2302 208.5 70.0501C196.35 56.4001 184.5 50.6402 175.11 53.7902C170.43 55.3802 166.59 59.1001 163.77 64.8601C155.01 82.6502 156.96 116.4 168.75 150.87C183.42 193.74 208.86 224.82 228.09 224.85C229.89 224.85 231.66 224.58 233.34 224.01C241.05 221.4 246.57 212.76 248.88 199.65C251.49 184.86 249.96 165.06 244.47 142.41C244.41 142.17 244.56 141.93 244.8 141.87C245.04 141.81 245.28 141.96 245.34 142.2C250.86 164.97 252.39 184.89 249.75 199.83C247.38 213.27 241.65 222.18 233.61 224.88C231.81 225.45 229.98 225.75 228.06 225.75Z" fill="#010101"/>
<path d="M225.27 215.7C217.59 215.7 208.71 210.36 199.71 200.22C188.79 187.92 178.98 170.01 172.05 149.76C161.55 119.1 159.84 89.01 167.7 73.11C170.31 67.8 173.85 64.38 178.23 62.91C186.12 60.24 195.99 64.44 206.07 74.76C206.25 74.94 206.25 75.21 206.07 75.39C205.89 75.57 205.62 75.57 205.44 75.39C195.6 65.31 186.03 61.2 178.5 63.75C174.36 65.13 171 68.43 168.51 73.5C160.77 89.19 162.51 119.01 172.92 149.46C185.85 187.35 208.32 214.8 225.27 214.8C226.86 214.8 228.42 214.56 229.89 214.05C242.04 209.94 247.32 189 243.36 160.65C243.33 160.41 243.51 160.17 243.75 160.14C243.99 160.11 244.23 160.29 244.26 160.53C246.21 174.42 246 186.81 243.63 196.41C241.17 206.37 236.55 212.76 230.19 214.89C228.63 215.43 226.98 215.7 225.27 215.7Z" fill="#010101"/>
<path d="M201.72 139.8C205.47 150.75 204.78 160.86 200.19 162.42C195.6 163.98 188.85 156.36 185.1 145.41C181.35 134.46 182.04 124.35 186.63 122.79C191.22 121.26 197.97 128.85 201.72 139.8Z" fill="white"/>
<path d="M221.01 224.49C220.98 224.49 220.95 224.49 220.92 224.49L220.41 224.4C220.38 224.4 220.38 224.4 220.35 224.37L148.02 200.55L85.14 212.97C85.11 212.97 85.08 212.97 85.05 212.97L56.19 213.24C56.16 213.24 56.1 213.24 56.07 213.24L41.25 209.37C41.16 209.34 41.1 209.31 41.04 209.25C38.07 208.32 34.71 203.76 32.7 197.94C30.57 191.73 30.51 186 32.55 183.63L32.61 183.54L42.54 170.82C42.57 170.79 42.6 170.76 42.63 170.73L65.7 153C65.73 152.97 65.76 152.97 65.76 152.97L122.37 124.14L164.91 60.9902C165.06 60.7802 165.33 60.7202 165.54 60.8702C165.63 60.9302 165.72 61.0502 165.75 61.1702C165.78 61.2902 165.75 61.4102 165.69 61.5002C160.56 69.2702 157.98 82.1702 158.43 97.8602C158.91 114.15 162.48 132.48 168.75 150.87C175.05 169.29 183.45 186 193.08 199.2C202.35 211.92 212.34 220.59 221.16 223.62C221.37 223.71 221.52 223.92 221.46 224.16C221.4 224.34 221.19 224.49 221.01 224.49ZM148.05 199.62C148.11 199.62 148.14 199.62 148.2 199.65L214.56 221.52C207.27 217.23 199.71 209.85 192.36 199.74C182.67 186.48 174.21 169.68 167.91 151.17C156.63 118.17 154.38 86.0102 161.61 67.5602L123.06 124.77C123.03 124.83 122.97 124.89 122.88 124.92L66.21 153.78L43.23 171.45L33.36 184.08L33.3 184.17C33.3 184.2 33.27 184.2 33.27 184.2C31.47 186.24 31.62 191.88 33.57 197.64C35.49 203.28 38.85 207.81 41.55 208.44C41.64 208.47 41.7 208.5 41.76 208.56L56.25 212.34L84.99 212.07L147.96 199.65C147.99 199.62 148.02 199.62 148.05 199.62Z" fill="#010101"/>
<path d="M122.79 124.32L165.27 61.26C154.68 77.25 155.28 112.98 168.3 150.99C181.32 189.09 202.77 217.8 221.01 224.04L220.5 223.95L148.2 200.13L146.52 199.59C138.12 196.77 128.28 183.84 122.43 166.59C116.43 148.92 117.39 132.33 122.28 125.1L122.79 124.32Z" fill="white"/>
<path d="M221.01 224.49C220.98 224.49 220.95 224.49 220.92 224.49L220.41 224.4C220.38 224.4 220.38 224.4 220.35 224.37L148.05 200.55L146.37 200.01C137.55 197.04 127.74 183.69 121.98 166.74C119.13 158.34 117.69 149.76 117.81 141.93C117.9 134.67 119.37 128.61 121.92 124.86L122.46 124.08L164.91 61.0201C165.06 60.8101 165.33 60.7501 165.54 60.9001C165.63 60.9601 165.72 61.0801 165.75 61.2001C165.78 61.3201 165.75 61.4401 165.69 61.5301C160.56 69.3001 157.98 82.2001 158.43 97.8901C158.91 114.18 162.48 132.51 168.75 150.9C175.05 169.32 183.45 186.03 193.08 199.23C202.35 211.95 212.34 220.62 221.16 223.65C221.37 223.74 221.52 223.95 221.46 224.19C221.4 224.34 221.19 224.49 221.01 224.49ZM161.58 67.5601L123.18 124.59L122.64 125.37C118.08 132.06 116.67 148.35 122.82 166.44C128.49 183.12 138.06 196.29 146.64 199.14L148.32 199.68L214.56 221.49C207.27 217.2 199.71 209.82 192.36 199.71C182.67 186.45 174.21 169.65 167.91 151.14C156.6 118.17 154.35 86.0101 161.58 67.5601Z" fill="#010101"/>
<path d="M55.38 213.03C55.35 213.03 55.29 213.03 55.26 213.03L41.25 209.37C41.16 209.34 41.1 209.31 41.04 209.25C38.07 208.32 34.71 203.76 32.7 197.94C30.57 191.73 30.51 186 32.55 183.63L32.61 183.54L42.54 170.82C42.69 170.61 42.99 170.58 43.17 170.73C43.38 170.88 43.41 171.18 43.26 171.36L33.36 184.05L33.3 184.14L33.27 184.17C31.47 186.21 31.62 191.85 33.57 197.61C35.49 203.25 38.85 207.78 41.55 208.41C41.64 208.44 41.7 208.47 41.76 208.53L55.5 212.13C55.74 212.19 55.89 212.43 55.83 212.67C55.77 212.91 55.59 213.03 55.38 213.03Z" fill="#010101"/>
<path d="M56.34 212.73C51.75 211.71 46.26 204.18 42.93 194.4C39.39 184.05 39.72 173.94 43.29 170.85L33 183.81L32.94 183.9C31.05 186.06 31.08 191.73 33.15 197.79C35.19 203.79 38.64 208.23 41.46 208.89L41.37 208.92L56.34 212.73Z" fill="#2383C6"/>
<path d="M56.3401 213.18C56.3101 213.18 56.2801 213.18 56.2501 213.18C56.1301 213.15 56.0101 213.12 55.9201 213.09L41.2801 209.37C41.1901 209.34 41.1301 209.31 41.0701 209.25C38.1001 208.32 34.7401 203.76 32.7301 197.94C30.6001 191.73 30.5401 186 32.5801 183.63L32.6401 183.54C32.6401 183.54 32.6401 183.51 32.6701 183.51L41.6701 172.17C42.0601 171.51 42.4801 170.94 42.9901 170.52C43.1701 170.37 43.4401 170.37 43.5901 170.55C43.7701 170.7 43.7701 170.97 43.6201 171.15L42.3601 172.71C40.0801 176.85 40.3801 185.64 43.3201 194.25C46.5301 203.67 51.7501 210.96 56.1001 212.19L56.4301 212.28C56.6701 212.34 56.8201 212.58 56.7601 212.82C56.7301 213.06 56.5501 213.18 56.3401 213.18ZM41.7601 208.56L52.6801 211.35C48.9001 208.35 45.0901 202.2 42.4801 194.55C39.9601 187.17 39.3301 179.82 40.5601 174.99L33.3601 184.05L33.3001 184.14C33.3001 184.17 33.2701 184.17 33.2701 184.17C31.4701 186.21 31.6201 191.85 33.5701 197.61C35.4901 203.25 38.8501 207.78 41.5501 208.41C41.6401 208.47 41.7001 208.5 41.7601 208.56Z" fill="#010101"/>
<path d="M84 212.52L85.23 212.46C78.54 212.85 69.78 201.54 64.65 186.51C59.4 171.21 60.12 156.81 65.97 153.39L65.19 153.99L43.32 170.79C39.69 173.82 39.33 183.99 42.9 194.4C46.35 204.45 52.17 212.1 56.82 212.76L84 212.52Z" fill="white"/>
<path d="M56.8501 213.24C56.8201 213.24 56.8201 213.24 56.7901 213.24C51.9001 212.52 46.0201 204.87 42.5101 194.58C38.9101 184.08 39.1501 173.73 43.0501 170.49L64.4701 154.02C64.8601 153.63 65.2801 153.33 65.7301 153.06C65.9401 152.94 66.2101 153 66.3301 153.21C66.4501 153.42 66.4201 153.66 66.2401 153.81L65.0401 154.74C63.0301 156.72 61.8301 160.5 61.5901 165.57C61.3201 171.72 62.5501 179.1 65.0701 186.42C70.1101 201.15 78.5701 212.07 84.9001 212.07C84.9601 212.07 85.0501 212.07 85.1101 212.07H85.2001C85.4401 212.07 85.6501 212.25 85.6801 212.49C85.6801 212.73 85.5001 212.94 85.2601 212.97C85.2301 212.97 85.2001 212.97 85.1701 212.97L84.0301 213.03C84.0301 213.03 84.0301 213.03 84.0001 213.03L56.8501 213.24ZM62.7001 156.48L43.6201 171.15C40.0501 174.12 39.9301 184.26 43.3501 194.25C46.7101 204.03 52.3801 211.62 56.8801 212.31L81.4801 212.07C75.3901 209.25 68.6101 199.5 64.2001 186.63C60.0301 174.48 59.6101 162.6 62.7001 156.48Z" fill="#010101"/>
<path d="M186.63 122.79C182.04 124.35 181.14 134.52 185.1 145.41C191.7 163.62 199.26 162.72 200.16 162.54C200.19 162.54 200.19 162.57 200.16 162.57L182.61 172.83C178.98 165.69 175.65 157.86 172.8 149.49C170.07 141.48 167.94 133.59 166.47 126.03L186.63 122.79Z" fill="#010101"/>
<path d="M182.4 173.46L182.19 173.04C178.47 165.72 175.17 157.83 172.35 149.64C169.65 141.78 167.52 133.89 165.99 126.12L165.9 125.67L186.54 122.34L186.75 123.21C185.73 123.57 184.86 124.41 184.23 125.73C182.25 129.84 182.76 137.7 185.49 145.23C191.97 163.14 199.23 162.24 200.04 162.09L200.4 162.03L200.7 162.75L200.37 162.96L182.4 173.46ZM166.98 126.42C168.51 133.98 170.61 141.69 173.22 149.37C175.95 157.35 179.16 165.06 182.79 172.2L198.57 162.99C195.72 162.57 189.84 159.81 184.68 145.56C181.83 137.67 181.35 129.75 183.45 125.34C183.78 124.62 184.2 124.05 184.65 123.57L166.98 126.42Z" fill="#010101"/>
<path d="M81.6001 195.15C81.3901 195.27 74.0101 205.14 74.0101 205.14L70.8301 199.92L77.3401 191.88L81.6001 195.15Z" fill="white"/>
<path d="M74.0099 205.59C73.8299 205.59 73.7099 205.5 73.6199 205.38L70.4399 200.16C70.3499 200.01 70.3499 199.8 70.4699 199.65L76.9799 191.61C77.1299 191.43 77.3999 191.4 77.6099 191.55L81.8699 194.85C81.9899 194.94 82.0499 195.09 82.0499 195.24C82.0499 195.36 81.9899 195.48 81.8999 195.54C81.4799 195.96 77.1899 201.69 74.3999 205.44C74.2799 205.53 74.1599 205.59 74.0099 205.59ZM71.3699 199.95L74.0399 204.33C78.6299 198.21 80.2799 196.02 80.9399 195.24L77.3699 192.51L71.3699 199.95Z" fill="#010101"/>
<path d="M74.9099 200.13C75.3899 200.22 75.9599 200.4 76.4399 200.91C77.1299 201.66 77.2499 202.77 76.8299 203.7C75.7499 206.01 72.6599 212.37 69.1499 216.42C67.9199 217.86 65.8499 217.8 65.3099 215.31C64.4699 211.26 64.6799 204.45 68.1299 198C68.5199 197.25 69.2699 196.77 70.1099 196.68C70.7999 196.62 71.6699 196.59 72.5099 196.71C73.3199 196.8 73.9199 197.49 73.9499 198.3L73.9799 199.05C73.9499 199.59 74.3699 200.04 74.9099 200.13Z" fill="#010101"/>
<path d="M67.8599 216.15C67.7399 216.15 67.6199 216.09 67.5299 216C67.3799 215.85 63.8699 211.86 69.2399 198.72C69.3299 198.48 69.5999 198.39 69.8399 198.48C70.0799 198.57 70.1699 198.84 70.0799 199.08C64.9799 211.56 68.1599 215.37 68.1899 215.4C68.3399 215.58 68.3399 215.88 68.1599 216.03C68.0999 216.09 67.9799 216.15 67.8599 216.15Z" fill="white"/>
<path d="M73.1401 210.24C73.0801 210.24 72.9901 210.21 72.9301 210.18L70.2001 208.74C69.9901 208.62 69.9001 208.35 70.0201 208.14C70.1401 207.93 70.4101 207.84 70.6201 207.96L73.3501 209.4C73.5601 209.52 73.6501 209.79 73.5301 210C73.4701 210.15 73.2901 210.24 73.1401 210.24Z" fill="white"/>
<path d="M74.6101 208.29C74.5501 208.29 74.4601 208.26 74.4001 208.23L71.2201 206.55C71.0101 206.43 70.9201 206.16 71.0401 205.95C71.1601 205.74 71.4301 205.65 71.6401 205.77L74.8201 207.45C75.0301 207.57 75.1201 207.84 75.0001 208.05C74.9101 208.2 74.7601 208.29 74.6101 208.29Z" fill="white"/>
<path d="M73.4402 138.48C70.8602 137.16 65.1302 134.1 63.3302 136.38C60.5702 139.95 59.8202 148.8 61.3202 151.23C63.7802 155.19 89.2502 166.41 88.5002 165.72C87.7502 165.03 76.6502 185.97 72.9002 194.28L80.7602 198.18C80.7602 198.18 108.51 170.55 108.84 166.2C109.38 158.43 91.1702 148.38 85.5002 144.78C84.7502 144.33 78.0302 140.85 73.4402 138.48Z" fill="#010101"/>
<path d="M64.2901 89.3101C63.3301 91.0501 64.5601 91.7401 63.7801 95.1601C63.2101 97.6801 62.2501 98.6101 62.8201 99.9001C63.3301 101.07 64.6201 101.52 65.4601 101.85C69.3601 103.26 73.2601 101.43 75.6301 100.29C77.5501 99.3901 80.2201 98.1301 80.1001 96.7501C79.9801 95.3701 77.3101 95.4601 76.1701 93.0901C75.2401 91.2001 76.4701 90.0901 75.4501 88.5001C74.1601 86.4301 70.9501 86.3701 70.4401 86.3401C68.3701 86.3401 65.4901 87.1501 64.2901 89.3101Z" fill="#010101"/>
<path d="M85.8901 100.83L75.3901 102.96C75.2101 102.99 75.0001 102.87 74.9701 102.69C74.3401 100.68 75.5401 98.4901 75.9001 97.9201C75.9601 97.8301 76.0501 97.7701 76.1401 97.7401C76.6501 97.6201 77.1301 97.4701 77.5501 97.2601C78.0901 97.0201 78.3301 96.3901 78.1201 95.8501C77.7901 94.9801 77.4301 93.8101 77.2201 93.3001C77.1601 93.1801 77.1901 93.0301 77.2501 92.9401C77.4301 92.7001 77.7301 92.4901 77.7001 92.1001C77.7001 91.9501 77.6101 91.8001 77.4601 91.7701C76.1701 91.3201 75.2401 89.3101 74.4001 88.6801C74.0101 88.3801 73.7101 88.2901 73.2601 88.0201C73.1701 87.9601 73.0801 87.9601 72.9901 87.9601C70.7401 88.3501 74.0101 91.2301 71.0401 92.7301C70.8901 92.7901 70.8001 92.9701 70.8301 93.1201C70.8601 93.3601 70.8301 93.6901 70.8001 93.9901C70.7701 94.2901 70.4101 94.4101 70.1701 94.2301C69.7501 93.8401 69.3001 93.7201 69.0301 93.8701C68.6401 94.0801 68.6401 94.8001 68.7601 95.2501C69.0001 96.1201 69.8701 96.5701 70.3801 96.7501C70.5601 96.8101 70.6801 97.0201 70.6201 97.2301C70.2301 98.4001 69.0301 102.09 68.8501 103.77C68.8201 103.95 68.7001 104.07 68.5201 104.1L66.5101 104.46C63.5101 104.97 59.8801 106.62 57.5101 108.54L54.4501 110.88C54.2101 111.06 53.1601 111.63 53.3701 111.87C59.2501 118.41 71.5501 115.05 76.1101 113.25C80.5501 111.51 85.2901 102.72 86.7901 104.58C87.8101 105.84 86.1601 100.77 85.8901 100.83Z" fill="white"/>
<path d="M63.7201 116.22C59.7901 116.22 55.7701 115.26 53.0101 112.23C52.8901 112.11 52.8601 111.96 52.8601 111.78C52.9201 111.42 53.2801 111.15 53.8801 110.76C54.0001 110.7 54.0901 110.64 54.1501 110.58L57.2101 108.24C59.6401 106.29 63.3301 104.58 66.4201 104.07L68.3701 103.74C68.5501 102.06 69.6301 98.6702 70.1101 97.2002C69.5101 96.9602 68.5501 96.4502 68.2801 95.4002C68.1301 94.8302 68.1601 93.8702 68.7901 93.5102C69.2101 93.2702 69.8101 93.4201 70.3501 93.8401C70.3801 93.5701 70.3801 93.3601 70.3501 93.2401C70.2901 92.8801 70.4701 92.5201 70.8001 92.3701C72.1201 91.7101 71.9401 90.8401 71.7601 89.8201C71.6401 89.1901 71.5201 88.5902 71.8801 88.1102C72.0901 87.8102 72.4201 87.6301 72.8701 87.5701C73.0501 87.5401 73.2601 87.5701 73.4401 87.6901C73.6201 87.7801 73.7401 87.8702 73.8901 87.9302C74.1301 88.0502 74.3401 88.1702 74.6101 88.3802C74.9701 88.6502 75.3301 89.1301 75.7201 89.6401C76.2601 90.3601 76.8901 91.1702 77.5501 91.4102C77.8501 91.5302 78.0901 91.8302 78.0901 92.1602C78.1201 92.6402 77.8501 92.9401 77.6701 93.1501C77.6401 93.1801 77.6101 93.2101 77.5801 93.2401C77.7001 93.5101 77.8501 93.9302 78.0001 94.4102C78.1501 94.8302 78.3301 95.3402 78.4801 95.7602C78.7801 96.5102 78.4201 97.4101 77.7001 97.7401C77.2501 97.9501 76.7401 98.1302 76.2001 98.2502C75.9301 98.7002 74.7901 100.74 75.3301 102.57L85.7701 100.44C86.1901 100.38 86.4001 100.68 86.8801 102C87.9001 104.88 87.5101 105.12 87.2701 105.24C87.0901 105.33 86.7901 105.39 86.4301 104.94C86.3701 104.85 86.3101 104.85 86.2801 104.85C85.6201 104.82 84.0901 106.56 82.7401 108.09C80.7601 110.34 78.5101 112.86 76.2601 113.76C75.3001 114.09 69.6001 116.22 63.7201 116.22ZM53.9101 111.84C60.4501 118.65 74.3701 113.49 75.9601 112.86C78.0301 112.05 80.2801 109.5 82.1101 107.43C84.0901 105.18 85.2901 103.89 86.3101 103.89H86.3401C86.4301 103.89 86.5201 103.89 86.6101 103.92C86.4001 103.08 85.9801 101.79 85.7401 101.31L75.5101 103.38C75.0901 103.44 74.6701 103.2 74.5501 102.81C73.8901 100.62 75.1201 98.3402 75.5101 97.6802C75.6301 97.5002 75.8101 97.3501 76.0501 97.2901C76.5301 97.1701 76.9801 97.0201 77.3701 96.8401C77.6701 96.6901 77.8201 96.3302 77.7001 96.0002C77.5201 95.5802 77.3701 95.0701 77.2201 94.6201C77.0701 94.1401 76.9201 93.7202 76.8001 93.4802C76.6801 93.2102 76.7101 92.9101 76.8901 92.6701C76.9501 92.6101 77.0101 92.5202 77.0701 92.4602C77.1901 92.3102 77.2501 92.2502 77.2501 92.1602C76.3501 91.8302 75.6601 90.9001 75.0601 90.1201C74.7301 89.6701 74.4001 89.2501 74.1301 89.0401C73.9201 88.8901 73.7401 88.8002 73.5301 88.6802C73.3801 88.6202 73.2301 88.5302 73.0501 88.4102C72.9001 88.4402 72.7501 88.5001 72.6901 88.5901C72.5701 88.7701 72.6601 89.1902 72.7201 89.6102C72.9001 90.6302 73.2001 92.1601 71.3101 93.1201C71.3401 93.3601 71.3401 93.6901 71.2801 94.0501V94.0802C71.2501 94.3502 71.0401 94.6202 70.7401 94.7102C70.4401 94.8302 70.1401 94.7402 69.9001 94.5602C69.5701 94.2602 69.3301 94.2302 69.2701 94.2602C69.1801 94.3202 69.1201 94.7102 69.2101 95.1302C69.3901 95.8202 70.1101 96.1802 70.5601 96.3302C70.9801 96.4802 71.2201 96.9302 71.0701 97.3802C70.7101 98.4602 69.4801 102.18 69.3301 103.83C69.3001 104.22 69.0001 104.52 68.6401 104.58L66.6301 104.91C63.6901 105.42 60.1501 107.01 57.8401 108.9L54.7801 111.24C54.7201 111.3 54.6001 111.36 54.4501 111.45C54.3001 111.57 54.0901 111.72 53.9101 111.84Z" fill="#010101"/>
<path d="M72.8701 97.7401C72.8701 97.7401 74.2201 98.3702 75.8401 97.8301L72.8701 97.7401Z" fill="white"/>
<path d="M74.4899 98.49C73.4399 98.49 72.7199 98.16 72.6599 98.13C72.4199 98.04 72.3299 97.77 72.4499 97.53C72.5399 97.29 72.8099 97.2 73.0499 97.32C73.0799 97.32 74.2799 97.86 75.6899 97.41C75.9299 97.32 76.1699 97.47 76.2599 97.71C76.3499 97.95 76.1999 98.19 75.9599 98.28C75.4499 98.43 74.9399 98.49 74.4899 98.49Z" fill="#010101"/>
<path d="M65.8501 88.4401C65.8501 88.4401 65.3701 84.3601 62.1001 85.3201C58.8301 86.2801 61.8001 89.7301 64.2301 90.0901C66.6601 90.4801 65.8501 88.4401 65.8501 88.4401Z" fill="#010101"/>
<path d="M127.86 75.9L132 72.24C132.3 72 132.72 71.97 133.02 72.21C133.35 72.48 133.41 72.96 133.17 73.32L131.82 75.03L132.72 77.58C132.99 78.36 132.75 79.23 132.12 79.77L130.44 81.18C129.6 81.87 128.4 81.99 127.44 81.45L126.78 81.09C125.79 80.55 125.25 79.41 125.46 78.3L125.7 76.98C125.85 76.14 126.66 75.6 127.47 75.81L127.86 75.9Z" fill="white"/>
<path d="M128.7 82.26C128.19 82.26 127.65 82.14 127.17 81.87L126.51 81.51C125.34 80.85 124.71 79.56 124.95 78.24L125.19 76.92C125.28 76.41 125.58 75.93 126.03 75.66C126.48 75.36 127.02 75.27 127.53 75.39L127.71 75.42L131.67 71.91C132.12 71.52 132.78 71.49 133.26 71.88C133.8 72.3 133.89 73.08 133.47 73.62L132.27 75.15L133.08 77.46C133.41 78.42 133.11 79.5 132.33 80.13L130.62 81.54C130.11 81.99 129.42 82.26 128.7 82.26ZM127.11 76.2C126.9 76.2 126.72 76.26 126.57 76.38C126.33 76.53 126.18 76.77 126.12 77.04L125.88 78.36C125.7 79.29 126.15 80.22 126.99 80.7L127.65 81.06C128.46 81.51 129.45 81.42 130.14 80.82L131.82 79.41C132.3 78.99 132.51 78.33 132.3 77.73L131.4 75.18C131.34 75.03 131.37 74.88 131.46 74.76L132.81 73.05C132.93 72.9 132.9 72.69 132.75 72.57C132.63 72.48 132.42 72.48 132.3 72.57L128.16 76.23C128.04 76.32 127.89 76.38 127.77 76.32L127.35 76.23C127.26 76.23 127.17 76.2 127.11 76.2Z" fill="#010101"/>
<path d="M127.86 75.9L129.3 77.07C129.3 77.07 128.76 78.48 127.77 77.85L127.86 75.9Z" fill="white"/>
<path d="M128.25 78.45C128.04 78.45 127.8 78.39 127.53 78.21C127.32 78.06 127.26 77.79 127.41 77.58C127.56 77.37 127.83 77.31 128.04 77.46C128.22 77.58 128.31 77.55 128.37 77.55C128.52 77.49 128.64 77.34 128.76 77.19L127.62 76.26C127.44 76.11 127.41 75.81 127.56 75.63C127.71 75.45 128.01 75.42 128.19 75.57L129.63 76.74C129.78 76.86 129.84 77.07 129.78 77.25C129.75 77.34 129.39 78.18 128.67 78.42C128.52 78.42 128.4 78.45 128.25 78.45Z" fill="#010101"/>
<path d="M132.06 75.7201L130.29 77.7301L132.06 75.7201Z" fill="white"/>
<path d="M130.29 78.1801C130.17 78.1801 130.08 78.1501 129.99 78.0601C129.81 77.9101 129.78 77.6101 129.96 77.4301L131.73 75.4201C131.88 75.2401 132.18 75.2101 132.36 75.3901C132.54 75.5401 132.57 75.8401 132.39 76.0201L130.62 78.0301C130.53 78.1201 130.41 78.1801 130.29 78.1801Z" fill="#010101"/>
<path d="M132.48 77.3701L131.07 78.9301L132.48 77.3701Z" fill="white"/>
<path d="M131.07 79.41C130.95 79.41 130.86 79.38 130.77 79.29C130.59 79.11 130.56 78.84 130.74 78.66L132.15 77.1C132.33 76.92 132.6 76.89 132.78 77.07C132.96 77.25 132.99 77.52 132.81 77.7L131.4 79.26C131.31 79.35 131.19 79.41 131.07 79.41Z" fill="#010101"/>
<path d="M62.9701 104.91L64.7101 104.34C64.7101 104.34 74.7901 111.45 79.7401 101.58L82.1401 101.01L86.3401 114.84L61.8601 120.21L62.9701 104.91Z" fill="#054E72"/>
<path d="M127.71 83.0101C126.06 82.4101 124.41 81.8101 122.76 81.2101C115.32 89.1301 108.21 93.0301 102.87 95.1601C96.2699 97.7701 85.0199 100.56 85.0199 100.56C85.0199 100.56 84.8099 105.84 75.8399 111.45C66.8699 117.06 53.7899 110.49 53.7899 110.49C53.7899 110.49 38.4599 122.43 37.2599 129.99C35.2799 142.5 56.9099 149.55 56.9099 149.55L57.9899 146.19C57.9899 146.19 49.4999 138.63 51.7199 131.43C53.9699 124.23 59.0399 121.23 59.0399 121.23C60.1199 129.69 59.0699 139.44 59.0699 139.44C73.3799 143.79 86.0999 139.59 91.7399 137.13C93.6599 136.29 94.7999 134.31 94.5599 132.21C93.6899 124.38 91.0799 114.42 91.0799 114.42C94.4399 114.39 98.0699 113.91 101.79 112.65C120 106.47 126.63 86.4601 127.71 83.0101Z" fill="#2383C6"/>
<path d="M75.6901 136.23C75.5101 136.23 75.3301 136.11 75.2701 135.93C75.1801 135.69 75.3001 135.45 75.5401 135.36C86.3101 131.49 88.4101 119.61 88.4401 119.49C88.4701 119.25 88.7101 119.07 88.9501 119.13C89.1901 119.16 89.3701 119.4 89.3101 119.64C89.2801 119.76 87.1201 132.18 75.8401 136.23C75.7801 136.2 75.7201 136.23 75.6901 136.23Z" fill="#9FB6DF"/>
<path d="M77.7 142.26L65.91 125.94C65.61 125.52 65.04 125.43 64.62 125.73L43.29 141.15C42.87 141.45 42.78 142.02 43.08 142.44L54.87 158.76C55.17 159.18 55.74 159.27 56.16 158.97L77.49 143.55C77.91 143.25 78 142.68 77.7 142.26Z" fill="white"/>
<path d="M55.6199 159.6C55.1999 159.6 54.7799 159.39 54.5099 159.03L42.7199 142.71C42.2699 142.08 42.4199 141.24 43.0199 140.79L64.3499 125.37C64.6499 125.16 65.0099 125.07 65.3699 125.13C65.7299 125.19 66.0599 125.4 66.2699 125.67L78.0599 141.99C78.2699 142.29 78.3599 142.65 78.2999 143.01C78.2399 143.37 78.0299 143.7 77.7599 143.91L56.4299 159.33C56.1599 159.51 55.8899 159.6 55.6199 159.6ZM65.1599 126C65.0699 126 64.9499 126.03 64.8899 126.09L43.5599 141.51C43.3499 141.66 43.2899 141.96 43.4399 142.17L55.2299 158.49C55.3799 158.7 55.6799 158.76 55.8899 158.61L77.2199 143.19C77.3099 143.13 77.3999 143.01 77.3999 142.89C77.4299 142.77 77.3999 142.65 77.3099 142.53L65.5199 126.21C65.4599 126.12 65.3399 126.03 65.2199 126.03C65.1899 126 65.1899 126 65.1599 126Z" fill="#010101"/>
<path d="M65.8973 128.177L45.7134 142.761L55.4126 156.185L75.5965 141.601L65.8973 128.177Z" fill="#054E72"/>
<path d="M75.36 137.1L70.05 129.75C69.69 129.24 68.97 129.12 68.46 129.48L66.78 130.68L73.41 139.86L75.09 138.66C75.6 138.33 75.72 137.61 75.36 137.1Z" fill="white"/>
<path d="M75.7501 131.25C74.9701 130.17 73.4401 129.9 72.3601 130.71L70.3801 132.15L73.2301 136.11L75.2101 134.67C76.2901 133.86 76.5301 132.33 75.7501 131.25ZM74.0401 132.48C73.8901 132.27 73.9201 131.97 74.1601 131.82C74.3701 131.67 74.6701 131.7 74.8201 131.94C74.9701 132.15 74.9401 132.45 74.7001 132.6C74.4901 132.75 74.1901 132.69 74.0401 132.48Z" fill="white"/>
<path d="M63.8653 131.564L62.9656 132.214L70.8198 143.084L71.7196 142.434L63.8653 131.564Z" fill="white"/>
<path d="M61.9862 132.898L61.0864 133.548L68.9393 144.418L69.8391 143.768L61.9862 132.898Z" fill="white"/>
<path d="M60.1622 134.232L59.2625 134.882L67.1154 145.752L68.0151 145.102L60.1622 134.232Z" fill="white"/>
<path d="M56.3701 149.04C56.3701 149.04 59.9101 154.53 62.7001 154.29C65.4901 154.02 65.2201 151.98 65.2201 151.98L61.4101 149.13C61.4101 149.13 65.1601 150.27 64.9201 148.89C64.8001 148.17 64.4701 148.17 63.6001 148.02C61.3501 147.63 57.2101 146.76 57.2101 146.76L56.3701 149.04Z" fill="white"/>
<path d="M62.52 154.74C59.52 154.74 56.13 149.52 55.98 149.28C55.89 149.16 55.89 149.01 55.95 148.89L56.79 146.58C56.88 146.37 57.09 146.25 57.3 146.31C57.33 146.31 61.47 147.18 63.66 147.57L63.81 147.6C64.59 147.72 65.19 147.84 65.37 148.83C65.43 149.19 65.34 149.49 65.07 149.7C64.71 150.03 63.99 150.06 63.27 150L65.46 151.65C65.55 151.71 65.61 151.83 65.64 151.95C65.64 151.98 65.76 152.88 65.16 153.66C64.65 154.29 63.84 154.68 62.73 154.77C62.67 154.71 62.58 154.74 62.52 154.74ZM56.85 148.98C57.9 150.54 60.66 154.02 62.64 153.84C63.48 153.75 64.08 153.51 64.44 153.09C64.68 152.76 64.74 152.43 64.77 152.22L61.14 149.49C60.96 149.37 60.9 149.13 61.02 148.92C61.11 148.74 61.35 148.62 61.56 148.68C63 149.1 64.32 149.19 64.5 148.98C64.5 148.98 64.5 148.95 64.5 148.92C64.44 148.59 64.44 148.56 63.69 148.44L63.54 148.41C61.71 148.11 58.59 147.45 57.51 147.21L56.85 148.98Z" fill="#010101"/>
<path d="M60.5701 152.04C60.5701 152.04 61.4101 153 63.3901 154.17L60.5701 152.04Z" fill="white"/>
<path d="M63.3901 154.59C63.3001 154.59 63.2401 154.56 63.1501 154.53C61.1401 153.36 60.2701 152.37 60.2101 152.31C60.0601 152.13 60.0601 151.83 60.2401 151.68C60.4201 151.53 60.7201 151.53 60.8701 151.71C60.9001 151.74 61.7101 152.67 63.5701 153.75C63.7801 153.87 63.8701 154.14 63.7201 154.38C63.6901 154.53 63.5401 154.59 63.3901 154.59Z" fill="#010101"/>
<path d="M61.4399 151.23C61.4399 151.23 62.5799 152.28 64.6499 153.51L61.4399 151.23Z" fill="white"/>
<path d="M64.6499 153.96C64.5599 153.96 64.4999 153.93 64.4099 153.9C62.3399 152.67 61.1699 151.62 61.1399 151.56C60.9599 151.38 60.9299 151.11 61.1099 150.93C61.2899 150.75 61.5599 150.72 61.7399 150.9C61.7399 150.9 62.8799 151.95 64.8599 153.12C65.0699 153.24 65.1299 153.51 65.0099 153.75C64.9499 153.87 64.7999 153.96 64.6499 153.96Z" fill="#010101"/>
<path d="M51.7199 131.37C52.0199 130.38 52.4099 129.45 52.7999 128.61C52.5899 128.43 52.3799 128.25 52.1699 128.1C50.6399 126.84 49.1399 125.55 47.5499 124.35C45.9599 123.15 44.3399 121.95 42.7499 120.75C39.9899 123.87 37.6799 127.2 37.2299 129.96C35.2499 142.47 56.8799 149.52 56.8799 149.52L57.9599 146.16C57.9899 146.13 49.4699 138.57 51.7199 131.37Z" fill="#2383C6"/>
<path d="M243.15 69.3001C222.96 69.5101 206.73 80.0401 206.85 92.7601C206.91 98.4601 210.24 103.65 215.73 107.61L209.58 120.33L227.04 113.1C232.05 114.66 237.69 115.5 243.69 115.44C263.88 115.23 280.11 104.7 279.99 91.9801C279.81 79.2301 263.34 69.0901 243.15 69.3001Z" fill="white"/>
<path d="M257.61 69.2401C257.55 69.2401 257.52 69.2401 257.46 69.2101C256.98 69.0301 256.5 68.8801 256.02 68.7301C255.78 68.6701 255.66 68.4001 255.72 68.1601C255.78 67.9201 256.05 67.8001 256.29 67.8601C256.8 68.0101 257.28 68.1901 257.76 68.3401C258 68.4301 258.12 68.6701 258.03 68.9101C257.97 69.1201 257.79 69.2401 257.61 69.2401Z" fill="#010101"/>
<path d="M239.28 112.53C237.96 112.53 236.67 112.5 235.38 112.41C235.14 112.38 234.93 112.17 234.96 111.93C234.99 111.69 235.2 111.51 235.44 111.51C236.91 111.6 238.41 111.66 239.91 111.63C249.6 111.54 258.66 109.05 265.44 104.67C272.16 100.32 275.82 94.62 275.76 88.62C275.67 81.57 270.48 75.09 261.48 70.86C261.24 70.74 261.15 70.5 261.27 70.26C261.39 70.05 261.63 69.93 261.87 70.05C271.2 74.43 276.57 81.21 276.66 88.62C276.72 94.95 272.91 100.92 265.92 105.45C258.99 109.92 249.75 112.44 239.91 112.56C239.7 112.53 239.49 112.53 239.28 112.53Z" fill="#010101"/>
<path d="M205.83 117.42C205.71 117.42 205.59 117.36 205.5 117.27C205.38 117.12 205.35 116.94 205.41 116.76L211.41 104.4C205.83 100.23 202.71 94.9201 202.65 89.4001C202.59 83.0701 206.4 77.1001 213.39 72.5701C220.32 68.1001 229.56 65.5801 239.4 65.4601C241.71 65.4301 244.05 65.5501 246.3 65.7901C246.54 65.8201 246.72 66.0301 246.69 66.3001C246.66 66.5401 246.45 66.7201 246.18 66.6901C243.96 66.4501 241.68 66.3301 239.4 66.3601C229.71 66.4501 220.65 68.9401 213.87 73.3201C207.15 77.7001 203.49 83.4001 203.55 89.4001C203.61 94.7401 206.7 99.8701 212.22 103.89C212.4 104.01 212.46 104.25 212.37 104.46L206.73 116.1L223.08 109.35C223.17 109.32 223.29 109.29 223.38 109.35C224.88 109.83 226.47 110.22 228.06 110.55C228.3 110.61 228.45 110.85 228.42 111.09C228.36 111.33 228.12 111.48 227.88 111.45C226.32 111.12 224.76 110.73 223.26 110.28L205.95 117.42C205.92 117.39 205.86 117.42 205.83 117.42Z" fill="#010101"/>
<path d="M237.24 102.66C237.24 101.73 237.57 100.98 238.26 100.38C238.92 99.7801 239.76 99.4801 240.78 99.4801C241.77 99.4801 242.61 99.7801 243.3 100.38C243.96 100.98 244.32 101.73 244.32 102.66C244.32 103.59 243.99 104.34 243.3 104.94C242.64 105.54 241.8 105.84 240.78 105.84C239.79 105.84 238.95 105.54 238.26 104.94C237.6 104.34 237.24 103.59 237.24 102.66ZM243.39 96.8101H238.26L237.45 78.0901H244.2L243.39 96.8101Z" fill="#054E72"/>
<path d="M219.27 142.5C219.06 142.5 218.88 142.35 218.82 142.14C218.76 141.9 218.91 141.66 219.15 141.6L239.19 137.13C239.43 137.07 239.67 137.22 239.73 137.46C239.79 137.7 239.64 137.94 239.4 138L219.36 142.5C219.33 142.5 219.3 142.5 219.27 142.5Z" fill="#010101"/>
<path d="M217.35 134.19C217.14 134.19 216.99 134.07 216.93 133.86C216.87 133.62 216.99 133.38 217.23 133.29L246.84 124.62C247.08 124.56 247.32 124.68 247.41 124.92C247.47 125.16 247.35 125.4 247.11 125.49L217.5 134.16C217.44 134.19 217.38 134.19 217.35 134.19Z" fill="#010101"/>
</svg>
