<svg width="295" height="300" viewBox="0 0 295 300" fill="none" xmlns="http://www.w3.org/2000/svg">
<path d="M174.968 0.000103988C165.412 -0.0140793 78.2278 1.31205 30.5862 73.0829C5.22653 111.286 -11.7898 173.759 13.0699 207.796C20.4097 217.848 24.2569 215.635 63.4985 239.428C117.359 272.085 117.108 280.495 139.404 287.967C168.43 297.693 211.316 297.675 243.442 273.787C279.893 246.683 285.286 201.64 290.682 156.527C295.98 112.254 301.348 67.3954 273.166 34.3591C243.949 0.110028 196.988 0.0355622 174.968 0.000103988Z" fill="#E5E5E5"/>
<path d="M4.43225 190.095C6.39663 196.477 9.23328 202.455 13.0699 207.707C20.4097 217.752 24.2569 215.621 63.4984 239.396C117.359 272.028 117.108 280.471 139.404 287.938C168.43 297.657 211.316 297.498 243.442 273.631C270.73 253.356 280.609 223.074 286.119 190.098H4.43225V190.095Z" fill="#92D5EF"/>
<path d="M197.974 249.2H138.195C136.489 249.2 135.106 247.817 135.106 246.112V246.048C135.106 244.342 136.489 242.959 138.195 242.959H197.97C199.676 242.959 201.059 244.342 201.059 246.048V246.112C201.062 247.817 199.679 249.2 197.974 249.2Z" fill="#E5E5E5"/>
<path d="M272.17 210.324H20.704C19.0021 210.324 17.6192 208.944 17.6192 207.239C17.6192 205.537 18.9985 204.154 20.704 204.154H272.17C273.872 204.154 275.255 205.533 275.255 207.239C275.255 208.944 273.875 210.324 272.17 210.324Z" fill="#E5E5E5"/>
<path d="M218.614 263.773H152.059C150.353 263.773 148.97 262.39 148.97 260.685V260.504C148.97 258.799 150.353 257.416 152.059 257.416H218.614C220.319 257.416 221.702 258.799 221.702 260.504V260.685C221.702 262.39 220.319 263.773 218.614 263.773Z" fill="#E5E5E5"/>
<path d="M123.221 75.5826H93.6947V192.474H123.221V75.5826Z" fill="#99B9FF"/>
<path d="M193.073 192.634H102.705V75.1254H194.843V190.861C194.846 191.839 194.052 192.634 193.073 192.634Z" fill="#92D5EF"/>
<path d="M187.216 99.5029H110.133C108.271 99.5029 106.765 97.9959 106.765 96.1344V85.5962C106.765 83.7346 108.271 82.2277 110.133 82.2277H187.212C189.074 82.2277 190.581 83.7346 190.581 85.5962V96.1344C190.584 97.9959 189.074 99.5029 187.216 99.5029Z" fill="#CADDFF"/>
<path d="M113.991 96.7973H111.179C110.2 96.7973 109.406 96.0031 109.406 95.0244V86.5322C109.406 85.5535 110.2 84.7593 111.179 84.7593H113.991C114.97 84.7593 115.764 85.5535 115.764 86.5322V95.0244C115.764 96.0031 114.97 96.7973 113.991 96.7973Z" fill="#A7A7A8"/>
<path d="M122.107 96.7973H119.295C118.317 96.7973 117.523 96.0031 117.523 95.0244V86.5322C117.523 85.5535 118.317 84.7593 119.295 84.7593H122.107C123.086 84.7593 123.88 85.5535 123.88 86.5322V95.0244C123.88 96.0031 123.086 96.7973 122.107 96.7973Z" fill="#A7A7A8"/>
<path d="M133.543 96.886H130.731C129.752 96.886 128.958 96.0917 128.958 95.113V86.6208C128.958 85.6422 129.752 84.8479 130.731 84.8479H133.543C134.521 84.8479 135.316 85.6422 135.316 86.6208V95.113C135.316 96.0917 134.521 96.886 133.543 96.886Z" fill="#A7A7A8"/>
<path d="M141.457 96.886H138.645C137.666 96.886 136.872 96.0917 136.872 95.113V86.6208C136.872 85.6422 137.666 84.8479 138.645 84.8479H141.457C142.435 84.8479 143.23 85.6422 143.23 86.6208V95.113C143.23 96.0917 142.435 96.886 141.457 96.886Z" fill="#A7A7A8"/>
<path d="M157.626 97.0596H154.814C153.835 97.0596 153.041 96.2654 153.041 95.2867V86.7945C153.041 85.8159 153.835 85.0216 154.814 85.0216H157.626C158.604 85.0216 159.399 85.8159 159.399 86.7945V95.2867C159.399 96.2654 158.608 97.0596 157.626 97.0596Z" fill="#A7A7A8"/>
<path d="M149.644 97.0596H146.832C145.854 97.0596 145.059 96.2654 145.059 95.2867V86.7945C145.059 85.8159 145.854 85.0216 146.832 85.0216H149.644C150.623 85.0216 151.417 85.8159 151.417 86.7945V95.2867C151.417 96.2654 150.623 97.0596 149.644 97.0596Z" fill="#A7A7A8"/>
<path d="M165.746 97.0596H162.934C161.955 97.0596 161.161 96.2654 161.161 95.2867V86.7945C161.161 85.8159 161.955 85.0216 162.934 85.0216H165.746C166.724 85.0216 167.519 85.8159 167.519 86.7945V95.2867C167.519 96.2654 166.724 97.0596 165.746 97.0596Z" fill="#A7A7A8"/>
<path d="M177.72 96.886H174.908C173.929 96.886 173.135 96.0917 173.135 95.113V86.6208C173.135 85.6422 173.929 84.8479 174.908 84.8479H177.72C178.699 84.8479 179.493 85.6422 179.493 86.6208V95.113C179.493 96.0917 178.699 96.886 177.72 96.886Z" fill="#A7A7A8"/>
<path d="M185.836 96.886H183.024C182.046 96.886 181.252 96.0917 181.252 95.113V86.6208C181.252 85.6422 182.046 84.8479 183.024 84.8479H185.836C186.815 84.8479 187.609 85.6422 187.609 86.6208V95.113C187.609 96.0917 186.815 96.886 185.836 96.886Z" fill="#A7A7A8"/>
<path d="M188.077 122.21H108.867C107.594 122.21 106.562 121.178 106.562 119.905V107.24C106.562 105.967 107.594 104.935 108.867 104.935H188.077C189.35 104.935 190.382 105.967 190.382 107.24V119.905C190.382 121.178 189.35 122.21 188.077 122.21Z" fill="#CADDFF"/>
<path d="M113.924 119.682H111.112C110.133 119.682 109.339 118.888 109.339 117.909V109.417C109.339 108.438 110.133 107.644 111.112 107.644H113.924C114.902 107.644 115.697 108.438 115.697 109.417V117.909C115.697 118.888 114.902 119.682 113.924 119.682Z" fill="#99B9FF"/>
<path d="M122.04 119.682H119.228C118.25 119.682 117.455 118.888 117.455 117.909V109.417C117.455 108.438 118.25 107.644 119.228 107.644H122.04C123.019 107.644 123.813 108.438 123.813 109.417V117.909C123.813 118.888 123.019 119.682 122.04 119.682Z" fill="#555656"/>
<path d="M133.475 119.767H130.664C129.685 119.767 128.891 118.973 128.891 117.994V109.502C128.891 108.523 129.685 107.729 130.664 107.729H133.475C134.454 107.729 135.248 108.523 135.248 109.502V117.994C135.248 118.973 134.454 119.767 133.475 119.767Z" fill="#555656"/>
<path d="M141.39 119.767H138.578C137.599 119.767 136.805 118.973 136.805 117.994V109.502C136.805 108.523 137.599 107.729 138.578 107.729H141.39C142.368 107.729 143.163 108.523 143.163 109.502V117.994C143.163 118.973 142.368 119.767 141.39 119.767Z" fill="#555656"/>
<path d="M157.559 119.941H154.747C153.768 119.941 152.974 119.147 152.974 118.168V109.676C152.974 108.697 153.768 107.903 154.747 107.903H157.559C158.537 107.903 159.332 108.697 159.332 109.676V118.168C159.332 119.15 158.541 119.941 157.559 119.941Z" fill="#555656"/>
<path d="M149.577 119.941H146.765C145.787 119.941 144.992 119.147 144.992 118.168V109.676C144.992 108.697 145.787 107.903 146.765 107.903H149.577C150.556 107.903 151.35 108.697 151.35 109.676V118.168C151.35 119.15 150.556 119.941 149.577 119.941Z" fill="#555656"/>
<path d="M165.679 119.941H162.867C161.888 119.941 161.094 119.147 161.094 118.168V109.676C161.094 108.697 161.888 107.903 162.867 107.903H165.679C166.657 107.903 167.451 108.697 167.451 109.676V118.168C167.451 119.15 166.657 119.941 165.679 119.941Z" fill="#555656"/>
<path d="M177.653 119.767H174.841C173.862 119.767 173.068 118.973 173.068 117.994V109.502C173.068 108.523 173.862 107.729 174.841 107.729H177.653C178.631 107.729 179.426 108.523 179.426 109.502V117.994C179.426 118.973 178.631 119.767 177.653 119.767Z" fill="#555656"/>
<path d="M185.769 119.767H182.957C181.979 119.767 181.184 118.973 181.184 117.994V109.502C181.184 108.523 181.979 107.729 182.957 107.729H185.769C186.748 107.729 187.542 108.523 187.542 109.502V117.994C187.542 118.973 186.748 119.767 185.769 119.767Z" fill="#555656"/>
<path d="M107.105 102.446C106.811 102.446 106.573 102.208 106.573 101.914C106.573 101.62 106.811 101.382 107.105 101.382L189.839 101.18C190.134 101.18 190.371 101.418 190.371 101.712C190.371 102.006 190.134 102.244 189.839 102.244L107.105 102.446Z" fill="white"/>
<path d="M107.105 124.77C106.811 124.77 106.573 124.533 106.573 124.238C106.573 123.944 106.811 123.707 107.105 123.707L189.839 123.505C190.134 123.505 190.371 123.742 190.371 124.036C190.371 124.331 190.134 124.568 189.839 124.568L107.105 124.77Z" fill="white"/>
<path d="M187.216 143.95H110.133C108.271 143.95 106.765 142.443 106.765 140.581V130.043C106.765 128.181 108.271 126.674 110.133 126.674H187.212C189.074 126.674 190.581 128.181 190.581 130.043V140.581C190.584 142.439 189.074 143.95 187.216 143.95Z" fill="#CADDFF"/>
<path d="M113.991 141.244H111.179C110.2 141.244 109.406 140.45 109.406 139.471V130.979C109.406 130 110.2 129.206 111.179 129.206H113.991C114.97 129.206 115.764 130 115.764 130.979V139.471C115.764 140.45 114.97 141.244 113.991 141.244Z" fill="#9A9A9B"/>
<path d="M122.107 141.244H119.295C118.317 141.244 117.523 140.45 117.523 139.471V130.979C117.523 130 118.317 129.206 119.295 129.206H122.107C123.086 129.206 123.88 130 123.88 130.979V139.471C123.88 140.45 123.086 141.244 122.107 141.244Z" fill="#9A9A9B"/>
<path d="M133.543 141.333H130.731C129.752 141.333 128.958 140.539 128.958 139.56V131.068C128.958 130.089 129.752 129.295 130.731 129.295H133.543C134.521 129.295 135.316 130.089 135.316 131.068V139.56C135.316 140.539 134.521 141.333 133.543 141.333Z" fill="#9A9A9B"/>
<path d="M141.457 141.333H138.645C137.666 141.333 136.872 140.539 136.872 139.56V131.068C136.872 130.089 137.666 129.295 138.645 129.295H141.457C142.435 129.295 143.23 130.089 143.23 131.068V139.56C143.23 140.539 142.435 141.333 141.457 141.333Z" fill="#9A9A9B"/>
<path d="M157.626 141.506H154.814C153.835 141.506 153.041 140.712 153.041 139.734V131.241C153.041 130.263 153.835 129.468 154.814 129.468H157.626C158.604 129.468 159.399 130.263 159.399 131.241V139.734C159.399 140.712 158.608 141.506 157.626 141.506Z" fill="#9A9A9B"/>
<path d="M149.644 141.506H146.832C145.854 141.506 145.059 140.712 145.059 139.734V131.241C145.059 130.263 145.854 129.468 146.832 129.468H149.644C150.623 129.468 151.417 130.263 151.417 131.241V139.734C151.417 140.712 150.623 141.506 149.644 141.506Z" fill="#9A9A9B"/>
<path d="M165.746 141.506H162.934C161.955 141.506 161.161 140.712 161.161 139.734V131.241C161.161 130.263 161.955 129.468 162.934 129.468H165.746C166.724 129.468 167.519 130.263 167.519 131.241V139.734C167.519 140.712 166.724 141.506 165.746 141.506Z" fill="#9A9A9B"/>
<path d="M177.72 141.329H174.908C173.929 141.329 173.135 140.535 173.135 139.556V131.064C173.135 130.085 173.929 129.291 174.908 129.291H177.72C178.699 129.291 179.493 130.085 179.493 131.064V139.556C179.493 140.538 178.699 141.329 177.72 141.329Z" fill="#9A9A9B"/>
<path d="M185.836 141.329H183.024C182.046 141.329 181.252 140.535 181.252 139.556V131.064C181.252 130.085 182.046 129.291 183.024 129.291H185.836C186.815 129.291 187.609 130.085 187.609 131.064V139.556C187.609 140.538 186.815 141.329 185.836 141.329Z" fill="#9A9A9B"/>
<path d="M188.077 166.657H108.867C107.594 166.657 106.562 165.625 106.562 164.352V151.686C106.562 150.414 107.594 149.382 108.867 149.382H188.077C189.35 149.382 190.382 150.414 190.382 151.686V164.352C190.382 165.625 189.35 166.657 188.077 166.657Z" fill="#CADDFF"/>
<path d="M113.924 164.125H111.112C110.133 164.125 109.339 163.331 109.339 162.352V153.86C109.339 152.882 110.133 152.087 111.112 152.087H113.924C114.902 152.087 115.697 152.882 115.697 153.86V162.352C115.697 163.331 114.902 164.125 113.924 164.125Z" fill="#5A5B5B"/>
<path d="M122.04 164.125H119.228C118.25 164.125 117.455 163.331 117.455 162.352V153.86C117.455 152.882 118.25 152.087 119.228 152.087H122.04C123.019 152.087 123.813 152.882 123.813 153.86V162.352C123.813 163.331 123.019 164.125 122.04 164.125Z" fill="#5A5B5B"/>
<path d="M133.475 164.214H130.664C129.685 164.214 128.891 163.42 128.891 162.441V153.949C128.891 152.97 129.685 152.176 130.664 152.176H133.475C134.454 152.176 135.248 152.97 135.248 153.949V162.441C135.248 163.42 134.454 164.214 133.475 164.214Z" fill="#5A5B5B"/>
<path d="M141.39 164.214H138.578C137.599 164.214 136.805 163.42 136.805 162.441V153.949C136.805 152.97 137.599 152.176 138.578 152.176H141.39C142.368 152.176 143.163 152.97 143.163 153.949V162.441C143.163 163.42 142.368 164.214 141.39 164.214Z" fill="#5A5B5B"/>
<path d="M157.559 164.388H154.747C153.768 164.388 152.974 163.593 152.974 162.615V154.123C152.974 153.144 153.768 152.35 154.747 152.35H157.559C158.537 152.35 159.332 153.144 159.332 154.123V162.615C159.332 163.593 158.541 164.388 157.559 164.388Z" fill="#5A5B5B"/>
<path d="M149.577 164.388H146.765C145.787 164.388 144.992 163.593 144.992 162.615V154.123C144.992 153.144 145.787 152.35 146.765 152.35H149.577C150.556 152.35 151.35 153.144 151.35 154.123V162.615C151.35 163.593 150.556 164.388 149.577 164.388Z" fill="#5A5B5B"/>
<path d="M165.679 164.388H162.867C161.888 164.388 161.094 163.593 161.094 162.615V154.123C161.094 153.144 161.888 152.35 162.867 152.35H165.679C166.657 152.35 167.451 153.144 167.451 154.123V162.615C167.451 163.593 166.657 164.388 165.679 164.388Z" fill="#5A5B5B"/>
<path d="M177.653 164.214H174.841C173.862 164.214 173.068 163.42 173.068 162.441V153.949C173.068 152.97 173.862 152.176 174.841 152.176H177.653C178.631 152.176 179.426 152.97 179.426 153.949V162.441C179.426 163.42 178.631 164.214 177.653 164.214Z" fill="#5A5B5B"/>
<path d="M185.769 164.214H182.957C181.979 164.214 181.184 163.42 181.184 162.441V153.949C181.184 152.97 181.979 152.176 182.957 152.176H185.769C186.748 152.176 187.542 152.97 187.542 153.949V162.441C187.542 163.42 186.748 164.214 185.769 164.214Z" fill="#5A5B5B"/>
<path d="M107.105 146.893C106.811 146.893 106.573 146.655 106.573 146.361C106.573 146.066 106.811 145.829 107.105 145.829L189.839 145.627C190.134 145.627 190.371 145.864 190.371 146.159C190.371 146.453 190.134 146.691 189.839 146.691L107.105 146.893Z" fill="white"/>
<path d="M188.279 190.606H109.069C107.796 190.606 106.765 189.574 106.765 188.301V175.635C106.765 174.362 107.796 173.33 109.069 173.33H188.279C189.552 173.33 190.584 174.362 190.584 175.635V188.301C190.584 189.574 189.552 190.606 188.279 190.606Z" fill="#CADDFF"/>
<path d="M114.126 188.074H111.314C110.335 188.074 109.541 187.28 109.541 186.301V177.809C109.541 176.83 110.335 176.036 111.314 176.036H114.126C115.104 176.036 115.899 176.83 115.899 177.809V186.301C115.899 187.28 115.104 188.074 114.126 188.074Z" fill="#8B8C8E"/>
<path d="M122.242 188.074H119.43C118.452 188.074 117.657 187.28 117.657 186.301V177.809C117.657 176.83 118.452 176.036 119.43 176.036H122.242C123.221 176.036 124.015 176.83 124.015 177.809V186.301C124.015 187.28 123.224 188.074 122.242 188.074Z" fill="#8B8C8E"/>
<path d="M133.677 188.162H130.866C129.887 188.162 129.093 187.368 129.093 186.389V177.897C129.093 176.919 129.887 176.124 130.866 176.124H133.677C134.656 176.124 135.45 176.919 135.45 177.897V186.389C135.45 187.368 134.656 188.162 133.677 188.162Z" fill="#8B8C8E"/>
<path d="M141.592 188.162H138.78C137.801 188.162 137.007 187.368 137.007 186.389V177.897C137.007 176.919 137.801 176.124 138.78 176.124H141.592C142.57 176.124 143.365 176.919 143.365 177.897V186.389C143.365 187.368 142.57 188.162 141.592 188.162Z" fill="#8B8C8E"/>
<path d="M157.764 188.336H154.952C153.974 188.336 153.179 187.542 153.179 186.563V178.071C153.179 177.092 153.974 176.298 154.952 176.298H157.764C158.743 176.298 159.537 177.092 159.537 178.071V186.563C159.537 187.542 158.743 188.336 157.764 188.336Z" fill="#8B8C8E"/>
<path d="M149.779 188.336H146.967C145.989 188.336 145.194 187.542 145.194 186.563V178.071C145.194 177.092 145.989 176.298 146.967 176.298H149.779C150.758 176.298 151.552 177.092 151.552 178.071V186.563C151.552 187.542 150.761 188.336 149.779 188.336Z" fill="#8B8C8E"/>
<path d="M165.881 188.336H163.069C162.09 188.336 161.296 187.542 161.296 186.563V178.071C161.296 177.092 162.09 176.298 163.069 176.298H165.881C166.859 176.298 167.653 177.092 167.653 178.071V186.563C167.653 187.542 166.859 188.336 165.881 188.336Z" fill="#8B8C8E"/>
<path d="M177.855 188.162H175.043C174.064 188.162 173.27 187.368 173.27 186.389V177.897C173.27 176.919 174.064 176.124 175.043 176.124H177.855C178.833 176.124 179.628 176.919 179.628 177.897V186.389C179.628 187.368 178.833 188.162 177.855 188.162Z" fill="#8B8C8E"/>
<path d="M185.971 188.162H183.159C182.181 188.162 181.386 187.368 181.386 186.389V177.897C181.386 176.919 182.181 176.124 183.159 176.124H185.971C186.95 176.124 187.744 176.919 187.744 177.897V186.389C187.744 187.368 186.953 188.162 185.971 188.162Z" fill="#8B8C8E"/>
<path d="M107.307 170.841C107.013 170.841 106.775 170.604 106.775 170.309C106.775 170.015 107.013 169.777 107.307 169.777L190.042 169.575C190.336 169.575 190.573 169.813 190.573 170.107C190.573 170.401 190.336 170.639 190.042 170.639L107.307 170.841Z" fill="white"/>
<path d="M195.917 80.8093H93.84C92.0778 80.8093 90.6488 79.3804 90.6488 77.6181V75.6785C90.6488 73.9163 92.0778 72.4873 93.84 72.4873H195.913C197.676 72.4873 199.105 73.9163 199.105 75.6785V77.6181C199.105 79.3804 197.679 80.8093 195.917 80.8093Z" fill="#92D5EF"/>
<path d="M102.605 127.004C102.311 127.004 102.073 126.767 102.073 126.472V84.8656C102.073 84.5713 102.311 84.3337 102.605 84.3337C102.9 84.3337 103.137 84.5713 103.137 84.8656V126.469C103.137 126.767 102.9 127.004 102.605 127.004Z" fill="black"/>
<path d="M194.541 190.73C194.247 190.73 194.009 190.492 194.009 190.198V85.4756C194.009 85.1813 194.247 84.9437 194.541 84.9437C194.836 84.9437 195.073 85.1813 195.073 85.4756V190.198C195.073 190.492 194.832 190.73 194.541 190.73Z" fill="white"/>
<path d="M129.713 193.286C129.419 193.286 129.181 193.048 129.181 192.758C129.181 192.463 129.419 192.226 129.713 192.222L179.957 192.052C179.957 192.052 179.957 192.052 179.961 192.052C180.255 192.052 180.493 192.29 180.493 192.58C180.493 192.875 180.255 193.112 179.961 193.116L129.713 193.286Z" fill="white"/>
<path d="M242.761 170.27C247.672 166.125 252.462 153.14 244.573 144.396C238.559 137.73 239.211 135.801 238.123 130C237.034 124.196 234.421 114.821 226.805 112.647C219.188 110.47 214.224 122.168 210.958 133.773C207.693 145.379 199.137 150.375 205.76 162.895C210.395 171.65 227.287 183.329 242.761 170.27Z" fill="#0185D4"/>
<path d="M224.518 197.857C224.223 197.857 223.986 197.619 223.986 197.325V156.619C223.986 156.325 224.223 156.087 224.518 156.087C224.812 156.087 225.049 156.325 225.049 156.619V197.321C225.049 197.616 224.808 197.857 224.518 197.857Z" fill="black"/>
<path d="M94.0634 175.27C98.6481 171.401 103.116 159.282 95.7548 151.126C90.1417 144.903 90.7516 143.106 89.7375 137.691C88.7234 132.277 86.2839 123.526 79.1745 121.497C72.0652 119.466 67.4343 130.383 64.3885 141.212C61.3426 152.045 53.3574 156.704 59.5378 168.391C63.8601 176.553 79.6213 187.453 94.0634 175.27Z" fill="#AEAEAF"/>
<path d="M77.0364 201.044C76.7421 201.044 76.5045 200.807 76.5045 200.512V162.53C76.5045 162.235 76.7421 161.998 77.0364 161.998C77.3307 161.998 77.5683 162.235 77.5683 162.53V200.512C77.5683 200.807 77.3307 201.044 77.0364 201.044Z" fill="#5479F7"/>
<path d="M11.953 157.016C9.88574 155.158 8.10928 153.158 6.78314 151.208C0.585058 142.106 -3.06712 122.274 6.88599 114.427C10.8077 111.335 16.1122 110.271 21.0515 111.016C24.3633 111.516 27.8134 112.761 30.9514 111.58C32.7243 110.913 34.1285 109.552 35.6957 108.484C54.0312 96.0102 64.9771 123.274 61.1973 137.422C58.1088 148.981 47.3012 158.69 36.9013 163.891C29.0154 167.834 18.846 163.207 11.953 157.016Z" fill="#0185D4"/>
<path d="M28.941 195.197C28.6467 195.197 28.4091 194.96 28.4091 194.665V136.801C28.4091 136.507 28.6467 136.269 28.941 136.269C29.2353 136.269 29.4729 136.507 29.4729 136.801V194.665C29.4729 194.96 29.2353 195.197 28.941 195.197Z" fill="black"/>
<path d="M28.6467 152.421C28.473 152.421 28.3028 152.336 28.2035 152.18L20.0375 139.755C19.8744 139.51 19.9453 139.181 20.1899 139.017C20.4346 138.858 20.7644 138.925 20.9275 139.17L29.0935 151.594C29.2566 151.839 29.1857 152.169 28.941 152.332C28.8488 152.392 28.746 152.421 28.6467 152.421Z" fill="black"/>
<path d="M37.8729 130.943C37.7843 130.943 37.6956 130.922 37.6105 130.873C37.3552 130.727 37.2666 130.405 37.4084 130.149L43.4434 119.501C43.5887 119.246 43.9114 119.157 44.1667 119.299C44.422 119.444 44.5106 119.767 44.3688 120.022L38.3339 130.67C38.2381 130.848 38.0608 130.943 37.8729 130.943Z" fill="black"/>
<path d="M41.0712 147.896C40.9081 147.896 40.7485 147.822 40.6422 147.68C40.4684 147.442 40.5145 147.112 40.7521 146.935L46.9643 142.322C47.1984 142.148 47.5317 142.194 47.709 142.432C47.8827 142.67 47.8366 142.999 47.5991 143.177L41.3868 147.79C41.291 147.861 41.1811 147.896 41.0712 147.896Z" fill="black"/>
<path d="M250.023 271.216C250.04 272.496 249.168 273.62 247.92 273.911C243.584 274.922 233.811 277.17 231.024 277.584C227.407 278.123 222.961 277.014 221.05 274.9C219.139 272.783 225.33 267.734 228.269 265.894C232.634 263.164 236.825 257.767 238.584 257.526C240.343 257.285 243.626 262.384 243.626 262.384L248.991 260.128C248.994 260.128 249.927 264.724 250.023 271.216Z" fill="#0185D4"/>
<path d="M229.141 278.251C225.776 278.251 222.301 277.077 220.656 275.255C220.259 274.815 220.096 274.241 220.185 273.599C220.564 270.886 225.606 266.933 227.989 265.44C230.12 264.107 232.194 262.139 234.027 260.401C236.024 258.508 237.463 257.139 238.516 256.994C240.307 256.746 242.906 260.334 243.832 261.717L248.789 259.635C248.934 259.575 249.101 259.582 249.243 259.657C249.384 259.731 249.484 259.866 249.516 260.022C249.526 260.068 250.462 264.741 250.558 271.209C250.579 272.73 249.523 274.085 248.044 274.429C243.892 275.397 233.932 277.687 231.109 278.109C230.464 278.205 229.804 278.251 229.141 278.251ZM238.726 258.047C238.704 258.047 238.68 258.047 238.658 258.05C237.946 258.15 236.325 259.689 234.758 261.174C232.889 262.947 230.776 264.954 228.553 266.344C225.666 268.149 221.521 271.727 221.238 273.748C221.192 274.081 221.255 274.333 221.447 274.542C223.174 276.453 227.436 277.581 230.946 277.056C233.733 276.641 243.658 274.354 247.799 273.393C248.796 273.163 249.505 272.251 249.491 271.227C249.416 266.238 248.838 262.352 248.587 260.876L243.832 262.873C243.594 262.972 243.318 262.887 243.179 262.671C241.725 260.408 239.641 258.047 238.726 258.047Z" fill="black"/>
<path d="M229.209 275.762C226.429 275.762 223.975 275.234 222.404 273.815C222.185 273.617 222.17 273.283 222.365 273.063C222.56 272.844 222.897 272.829 223.117 273.024C228.659 278.028 247.661 270.351 247.853 270.269C248.126 270.159 248.434 270.291 248.548 270.56C248.658 270.833 248.53 271.142 248.257 271.255C247.658 271.5 237.105 275.762 229.209 275.762Z" fill="black"/>
<path d="M237.573 267.571C237.446 267.571 237.318 267.525 237.219 267.433L233.382 263.972C233.162 263.777 233.148 263.44 233.343 263.22C233.542 263 233.875 262.986 234.095 263.181L237.932 266.642C238.151 266.837 238.166 267.174 237.971 267.394C237.864 267.511 237.719 267.571 237.573 267.571Z" fill="black"/>
<path d="M253.99 160.668L233.212 159.757C233.212 159.757 234.127 196.995 233.294 211.98C232.46 226.968 238.261 254.515 238.261 254.515C241.534 256.575 250.668 256.168 250.668 256.168C251.047 250.377 254.895 178.348 255.083 174.819C253.608 170.224 254.104 165.384 253.99 160.668Z" fill="black"/>
<path d="M244.679 242.236C244.388 242.236 244.154 242.006 244.147 241.715C244.023 234.974 236.24 222.259 236.159 222.131C236.006 221.88 236.084 221.553 236.332 221.401C236.584 221.248 236.91 221.323 237.063 221.575C237.389 222.106 245.08 234.666 245.207 241.697C245.211 241.991 244.981 242.233 244.686 242.24C244.686 242.236 244.683 242.236 244.679 242.236Z" fill="white"/>
<path d="M248.995 250.047L248.055 263.578H240.509L240.158 250.047H248.995Z" fill="white"/>
<path d="M248.055 264.11H240.509C240.222 264.11 239.985 263.88 239.978 263.593L239.627 250.062C239.623 249.92 239.676 249.778 239.775 249.675C239.875 249.572 240.013 249.516 240.155 249.516H248.991C249.14 249.516 249.278 249.576 249.381 249.686C249.48 249.792 249.534 249.938 249.523 250.086L248.583 263.617C248.566 263.894 248.331 264.11 248.055 264.11ZM241.027 263.046H247.555L248.42 250.579H240.701L241.027 263.046Z" fill="black"/>
<path d="M257.274 293.459C271.912 293.459 283.779 281.037 283.779 265.713C283.779 250.389 271.912 237.967 257.274 237.967C242.636 237.967 230.769 250.389 230.769 265.713C230.769 281.037 242.636 293.459 257.274 293.459Z" fill="black"/>
<path d="M260.022 292.275C252.725 292.275 246.023 289.644 241.158 284.867C236.212 280.01 233.489 273.219 233.489 265.741C233.489 261.813 234.946 255.469 237.034 252.647C237.208 252.409 237.542 252.359 237.779 252.537C238.017 252.71 238.066 253.044 237.889 253.281C235.978 255.859 234.552 261.986 234.552 265.745C234.552 280.502 245.264 291.214 260.022 291.214C262.242 291.214 268.291 289.888 271.071 287.998C271.315 287.835 271.645 287.896 271.808 288.14C271.975 288.385 271.911 288.715 271.666 288.878C268.617 290.952 262.306 292.275 260.022 292.275Z" fill="#707070"/>
<path d="M257.848 285.835C267.81 285.835 275.886 277.382 275.886 266.954C275.886 256.526 267.81 248.072 257.848 248.072C247.887 248.072 239.811 256.526 239.811 266.954C239.811 277.382 247.887 285.835 257.848 285.835Z" fill="#888889"/>
<path d="M258.309 283.527C249.448 283.527 242.24 275.992 242.24 266.727C242.24 263.823 242.96 260.965 244.321 258.451C244.459 258.192 244.786 258.096 245.041 258.238C245.3 258.38 245.396 258.703 245.254 258.958C243.977 261.312 243.3 264 243.3 266.727C243.3 275.404 250.033 282.463 258.306 282.463C259.887 282.463 261.444 282.208 262.933 281.701C263.21 281.605 263.515 281.754 263.607 282.034C263.703 282.311 263.554 282.616 263.274 282.708C261.681 283.254 260.008 283.527 258.309 283.527Z" fill="#E1E2E5"/>
<path d="M261.795 273.067C262.426 277.258 263.919 280.832 266.731 283.453C267.28 283.967 267.986 284.279 268.738 284.339C274.968 284.825 280.499 283.548 285.527 281.02C287.304 280.127 287.321 277.588 285.573 276.645L274.028 270.407L261.795 273.067Z" fill="#585959"/>
<path d="M262.327 271.648C262.958 275.84 264.451 279.414 267.263 282.034C267.812 282.548 268.518 282.86 269.269 282.921C275.499 283.406 281.031 282.13 286.059 279.602C287.835 278.708 287.853 276.169 286.105 275.226L274.56 268.989L262.327 271.648Z" fill="#E5E5E5"/>
<path d="M268.17 240.421C267.947 236.116 264.497 232.116 260.465 232.116C256.586 232.116 253.547 234.435 253.157 238.304C244.644 239.694 237.478 245.328 233.68 253.072C243.945 254.267 252.636 260.603 257.114 269.436C258.589 272.344 261.784 273.886 264.99 273.304C266.482 273.035 268.021 272.893 269.592 272.893C272.787 272.893 275.843 273.475 278.666 274.542C280.527 275.244 282.595 274.155 283.041 272.216C283.52 270.131 283.775 267.954 283.775 265.716C283.779 254.455 277.372 244.771 268.17 240.421ZM258.072 238.229C257.27 238.229 256.462 238.332 255.678 238.406C256.366 235.747 258.16 234.506 259.845 234.417C262.16 234.297 264.259 236.651 264.809 239.736C262.369 238.963 260.756 238.229 258.072 238.229Z" fill="#03608E"/>
<path d="M279.84 275.283C279.382 275.283 278.921 275.201 278.482 275.035C275.645 273.964 272.656 273.421 269.596 273.421C268.082 273.421 266.568 273.556 265.089 273.826C261.618 274.457 258.224 272.787 256.643 269.674C252.122 260.759 243.516 254.749 233.62 253.597C233.45 253.576 233.297 253.476 233.216 253.324C233.134 253.171 233.131 252.99 233.205 252.834C237.084 244.92 244.342 239.339 252.679 237.843C253.246 234.081 256.324 231.581 260.465 231.581C264.589 231.581 268.284 235.439 268.677 240.073C278.184 244.707 284.311 254.735 284.311 265.709C284.311 267.943 284.059 270.17 283.563 272.329C283.318 273.397 282.62 274.308 281.652 274.829C281.091 275.131 280.467 275.283 279.84 275.283ZM269.596 272.358C272.783 272.358 275.9 272.925 278.857 274.042C279.609 274.326 280.442 274.272 281.148 273.893C281.847 273.521 282.346 272.865 282.524 272.095C283.002 270.014 283.244 267.869 283.244 265.713C283.244 255.036 277.237 245.3 267.94 240.903C267.763 240.818 267.646 240.644 267.635 240.449C267.419 236.293 264.068 232.648 260.462 232.648C256.693 232.648 254.033 234.889 253.682 238.357C253.657 238.598 253.476 238.789 253.239 238.828C245.314 240.123 238.357 245.264 234.492 252.639C244.424 254.044 253.019 260.188 257.586 269.195C258.951 271.886 261.884 273.326 264.894 272.783C266.44 272.5 268.021 272.358 269.596 272.358ZM264.809 240.268C264.756 240.268 264.699 240.261 264.649 240.243C264.217 240.105 263.813 239.97 263.422 239.839C261.621 239.236 260.199 238.761 258.075 238.761C257.476 238.761 256.852 238.825 256.253 238.885C256.079 238.903 255.905 238.921 255.732 238.935C255.561 238.949 255.391 238.882 255.278 238.75C255.164 238.619 255.125 238.442 255.168 238.272C255.969 235.176 258.097 233.974 259.82 233.886C262.362 233.754 264.727 236.226 265.337 239.64C265.369 239.825 265.305 240.009 265.163 240.133C265.064 240.226 264.937 240.268 264.809 240.268ZM258.072 237.697C260.37 237.697 261.94 238.222 263.759 238.832C263.866 238.867 263.969 238.903 264.078 238.938C263.369 236.52 261.66 234.854 259.877 234.949C258.668 235.013 257.2 235.807 256.434 237.797C256.969 237.747 257.519 237.697 258.072 237.697Z" fill="black"/>
<path d="M265.997 271.595C263.061 271.595 260.366 269.986 259.008 267.312C254.966 259.345 247.665 253.668 238.974 251.739C238.687 251.675 238.506 251.391 238.57 251.104C238.634 250.817 238.917 250.636 239.204 250.7C248.207 252.7 255.771 258.579 259.955 266.83C261.32 269.521 264.252 270.961 267.263 270.418C268.801 270.138 270.383 269.996 271.961 269.996C272.255 269.996 272.493 270.234 272.493 270.528C272.493 270.822 272.255 271.06 271.961 271.06C270.447 271.06 268.933 271.195 267.454 271.464C266.965 271.553 266.479 271.595 265.997 271.595Z" fill="white"/>
<path d="M241.318 248.335C241.187 248.335 241.055 248.289 240.953 248.189C240.74 247.987 240.726 247.65 240.928 247.438C246.179 241.832 249.303 240.885 254.721 240.183C255.012 240.144 255.278 240.35 255.317 240.64C255.356 240.931 255.15 241.197 254.859 241.236C249.583 241.924 246.743 242.786 241.704 248.165C241.602 248.282 241.463 248.335 241.318 248.335Z" fill="white"/>
<path d="M278.361 254.983L277.386 264.256L271.117 264.993V253.998L278.361 254.983Z" fill="white"/>
<path d="M271.117 265.525C270.986 265.525 270.861 265.479 270.762 265.39C270.649 265.291 270.585 265.146 270.585 264.993V253.998C270.585 253.845 270.652 253.696 270.766 253.597C270.883 253.494 271.035 253.452 271.188 253.469L278.432 254.455C278.715 254.494 278.918 254.753 278.889 255.037L277.914 264.309C277.889 264.557 277.694 264.752 277.446 264.781L271.177 265.515C271.159 265.522 271.138 265.525 271.117 265.525ZM271.649 254.608V264.394L276.904 263.777L277.779 255.441L271.649 254.608Z" fill="black"/>
<path d="M270.127 281.134C272.741 281.502 277.024 281.825 282.056 281.13C283.704 280.903 284.797 279.304 284.399 277.687C283.293 273.184 281.382 264.646 278.109 260.688L277.297 262.834L276.173 260.813C276.021 260.536 275.744 260.348 275.428 260.309L272.968 259.997C272.454 259.933 271.975 260.274 271.868 260.781L271.478 262.642L270.62 260.199L267.759 277.999C267.553 279.517 268.61 280.921 270.127 281.134Z" fill="#0185D4"/>
<path d="M276.056 282.07C273.648 282.07 271.599 281.875 270.053 281.658C268.255 281.407 266.986 279.729 267.223 277.925L270.088 260.11C270.127 259.869 270.322 259.689 270.567 259.664C270.805 259.642 271.035 259.788 271.117 260.018L271.344 260.667C271.507 259.894 272.244 259.369 273.031 259.469L275.492 259.781C275.971 259.841 276.4 260.132 276.634 260.554L277.201 261.575L277.609 260.501C277.676 260.323 277.833 260.196 278.02 260.164C278.205 260.132 278.396 260.203 278.517 260.348C281.648 264.131 283.545 271.929 284.676 276.584L284.913 277.556C285.137 278.471 284.963 279.439 284.435 280.219C283.903 281.002 283.063 281.524 282.126 281.655C279.946 281.956 277.896 282.07 276.056 282.07ZM270.202 280.605C272.858 280.978 277.06 281.283 281.981 280.602C282.619 280.513 283.194 280.155 283.555 279.623C283.921 279.084 284.034 278.442 283.882 277.811L283.644 276.836C282.605 272.563 280.91 265.599 278.265 261.777L277.794 263.022C277.719 263.217 277.542 263.348 277.336 263.362C277.13 263.376 276.932 263.27 276.833 263.089L275.709 261.068C275.638 260.94 275.506 260.852 275.361 260.834L272.9 260.522C272.663 260.493 272.439 260.653 272.39 260.887L272 262.749C271.95 262.983 271.751 263.153 271.514 263.171C271.28 263.185 271.056 263.043 270.978 262.816L270.815 262.348L268.284 278.077C268.121 279.293 268.982 280.435 270.202 280.605Z" fill="black"/>
<path d="M277.393 279.088C273.173 279.088 269.826 278.152 269.631 278.095C269.347 278.013 269.184 277.719 269.266 277.439C269.347 277.155 269.638 276.992 269.922 277.074C269.986 277.091 276.379 278.879 282.474 277.489C282.761 277.425 283.045 277.602 283.112 277.889C283.176 278.176 282.999 278.46 282.712 278.528C280.9 278.939 279.077 279.088 277.393 279.088Z" fill="black"/>
<path d="M278.889 272.195C278.882 272.195 278.879 272.195 278.871 272.195L272.996 272C272.702 271.989 272.471 271.744 272.482 271.45C272.493 271.156 272.719 270.929 273.031 270.936L278.907 271.131C279.201 271.142 279.432 271.386 279.421 271.681C279.41 271.968 279.176 272.195 278.889 272.195Z" fill="black"/>
<path d="M284.059 218.738C282.836 204.136 280.499 161.835 280.499 161.835L253.99 160.672C254.104 165.384 253.608 170.224 255.083 174.827C255.086 174.738 255.09 174.692 255.09 174.692C255.09 174.692 255.253 175.192 255.529 176.061C255.607 176.249 255.685 176.436 255.767 176.624C255.682 176.436 255.604 176.249 255.529 176.061C256.774 179.996 260.32 191.563 261.515 199.41C262.972 208.991 267.89 219.738 267.89 219.738C268.755 227.663 269.553 256.203 269.553 256.203L281.198 256.817C281.201 256.813 285.282 233.34 284.059 218.738Z" fill="black"/>
<path d="M273.595 220.263H270.035C269.741 220.263 269.503 220.025 269.503 219.731C269.503 219.437 269.741 219.199 270.035 219.199H273.595C273.89 219.199 274.127 219.437 274.127 219.731C274.127 220.025 273.89 220.263 273.595 220.263Z" fill="white"/>
<path d="M229.528 94.177C228.68 94.1097 224.518 102.634 211.497 102.276C198.474 101.918 188.028 87.3478 188.028 87.3478C188.028 87.3478 183.532 79.7633 180.117 77.0224C176.702 74.2815 176.167 73.9198 176.167 73.9198C176.167 73.9198 175.096 75.3452 176.167 77.0224C177.238 78.6996 180.191 81.8376 180.191 81.8376C180.191 81.8376 176.936 83.6247 178.404 87.3478C180.092 91.6276 184.851 91.2837 184.851 91.2837C184.851 91.2837 194.506 134.032 234.407 113.718L229.528 94.177Z" fill="white"/>
<path d="M214.621 119.725C210.565 119.725 206.781 118.906 203.285 117.264C189.992 111.023 185.177 94.638 184.436 91.8155C183.138 91.7765 179.401 91.3227 177.911 87.5428C176.692 84.4473 178.44 82.5255 179.39 81.756C178.528 80.8199 176.571 78.6428 175.72 77.3096C174.468 75.3452 175.692 73.6716 175.741 73.6007C175.912 73.3737 176.231 73.3205 176.465 73.4801C176.486 73.4943 177.057 73.8843 180.45 76.6111C183.84 79.3343 188.152 86.5216 188.471 87.057C188.889 87.6279 199.105 101.407 211.512 101.747C221.585 102.024 226.173 96.9144 228.131 94.7337C228.819 93.9678 229.131 93.6168 229.57 93.6523C229.797 93.67 229.989 93.8331 230.045 94.0529L234.925 113.594C234.985 113.835 234.871 114.083 234.652 114.197C227.407 117.877 220.709 119.725 214.621 119.725ZM184.851 90.7518C185.099 90.7518 185.315 90.922 185.368 91.1666C185.411 91.351 189.715 109.725 203.743 116.306C212.082 120.218 222.188 119.253 233.79 113.434L229.216 95.1167C229.12 95.2195 229.021 95.333 228.925 95.4393C226.872 97.7299 222.046 103.095 211.483 102.808C198.349 102.446 188.028 88.2591 187.595 87.6563C187.584 87.6421 187.577 87.6315 187.57 87.6173C187.524 87.5428 183.081 80.086 179.784 77.4372C177.865 75.8948 176.862 75.1112 176.355 74.7211C176.195 75.1786 176.096 75.9196 176.617 76.7352C177.649 78.3521 180.549 81.4405 180.581 81.4724C180.695 81.5929 180.744 81.7561 180.72 81.9192C180.695 82.0823 180.596 82.2241 180.45 82.3021C180.337 82.3659 177.628 83.9225 178.901 87.1492C180.422 91.0035 184.634 90.7624 184.815 90.7518C184.826 90.7518 184.836 90.7518 184.851 90.7518Z" fill="black"/>
<path d="M294.069 113.718C294.069 113.718 290.161 88.4967 276.354 82.288C262.546 76.0828 243.871 76.9444 238.719 80.0435C233.566 83.1425 220.142 97.1556 220.142 97.1556L232.006 113.718C232.006 113.718 229.294 158.3 231.439 170.068C231.439 170.068 244.637 171.607 250.232 169.402C255.831 167.196 274.233 164.108 283.031 168.15L281.431 111.708L294.069 113.718Z" fill="#0185D4"/>
<path d="M240.743 171.128C236.027 171.128 231.687 170.632 231.379 170.596C231.145 170.568 230.96 170.394 230.918 170.164C228.836 158.732 231.251 117.455 231.467 113.874L219.713 97.4675C219.564 97.2582 219.585 96.9746 219.763 96.7902C220.312 96.2158 233.297 82.692 238.449 79.5895C244.034 76.228 262.922 75.6678 276.577 81.8056C290.487 88.0569 294.438 112.597 294.601 113.64C294.625 113.807 294.572 113.977 294.452 114.097C294.331 114.218 294.161 114.271 293.994 114.246L281.992 112.339L283.573 168.139C283.577 168.324 283.488 168.497 283.336 168.597C283.183 168.699 282.988 168.714 282.821 168.636C274.443 164.785 256.217 167.621 250.441 169.898C248.009 170.852 244.271 171.128 240.743 171.128ZM231.896 169.582C234.12 169.813 245.165 170.827 250.04 168.909C255.494 166.76 273.212 163.703 282.477 167.338L280.903 111.722C280.9 111.562 280.963 111.413 281.084 111.307C281.205 111.204 281.364 111.158 281.52 111.183L293.42 113.073C292.647 108.924 288.225 88.2022 276.141 82.77C262.376 76.5826 243.817 77.5967 238.999 80.4972C234.393 83.2665 222.869 95.1059 220.841 97.2015L232.446 113.402C232.517 113.502 232.552 113.622 232.545 113.743C232.51 114.19 229.911 157.441 231.896 169.582Z" fill="black"/>
<path d="M270.904 157.051C270.872 157.051 270.844 157.048 270.812 157.044C259.6 155.062 252.636 150.041 248.771 146.176C244.566 141.971 243.041 138.276 242.977 138.12C242.867 137.847 242.998 137.539 243.271 137.429C243.544 137.319 243.853 137.45 243.963 137.723C244.023 137.869 250.122 152.307 270.996 155.998C271.287 156.048 271.478 156.325 271.429 156.615C271.383 156.871 271.159 157.051 270.904 157.051Z" fill="black"/>
<path d="M237.595 131.348H259.873L252.895 101.336H230.62L237.595 131.348Z" fill="black"/>
<path d="M291.7 113.814L278.102 107.736C278.102 107.736 280.017 130.773 252.508 120.136C252.508 120.136 253.522 117.175 253.38 113.718C253.239 110.261 251.168 113.605 250.877 116.416C250.586 119.228 244.129 118.086 240.247 116.98C236.364 115.874 231.272 116.597 240.247 121.547C249.221 126.497 251.189 124.288 251.189 124.288C251.189 124.288 262.653 140.326 276.914 136.922C294.459 132.731 291.7 113.814 291.7 113.814Z" fill="white"/>
<path d="M272.936 137.922C261.674 137.922 252.788 127.228 251.058 125.001C249.973 125.497 247.019 125.891 239.988 122.012C234.687 119.086 234.488 117.743 234.8 116.984C235.375 115.594 238.456 115.913 240.392 116.462C243.789 117.43 248.306 118.189 249.867 117.133C250.161 116.934 250.313 116.689 250.345 116.36C250.537 114.498 251.618 111.711 252.817 111.711C252.824 111.711 252.831 111.711 252.842 111.711C253.827 111.743 253.888 113.211 253.909 113.693C254.022 116.416 253.444 118.813 253.161 119.813C262.025 123.161 268.628 123.278 272.79 120.161C278.198 116.115 277.577 107.857 277.57 107.775C277.556 107.587 277.641 107.406 277.793 107.297C277.946 107.187 278.148 107.169 278.318 107.243L291.916 113.321C292.083 113.395 292.2 113.548 292.225 113.729C292.253 113.927 292.913 118.633 291.395 123.934C289.984 128.862 286.35 135.206 277.038 137.429C275.645 137.773 274.272 137.922 272.936 137.922ZM251.196 123.749C251.207 123.749 251.218 123.749 251.228 123.749C251.388 123.756 251.53 123.848 251.625 123.98C251.739 124.136 263.05 139.688 276.794 136.404C283.867 134.713 288.438 130.422 290.378 123.65C291.626 119.288 291.324 115.264 291.211 114.175L278.669 108.569C278.691 110.927 278.279 117.391 273.436 121.015C268.886 124.419 261.784 124.288 252.32 120.629C252.054 120.526 251.916 120.232 252.008 119.962C252.019 119.934 252.987 117.048 252.852 113.739C252.834 113.285 252.781 113.023 252.739 112.878C252.331 113.31 251.583 114.828 251.413 116.47C251.345 117.108 251.023 117.643 250.473 118.016C248.129 119.601 241.949 118.012 240.109 117.487C237.818 116.835 235.939 117.033 235.793 117.388C235.79 117.399 235.566 118.349 240.513 121.076C248.796 125.643 250.799 123.93 250.817 123.912C250.909 123.806 251.047 123.749 251.196 123.749Z" fill="black"/>
<path d="M255.405 70.7923C256.579 71.8667 258.877 73.1822 260.674 72.2744C262.011 71.6007 262.759 69.8562 262.713 67.8564C263.334 67.906 264.146 67.8634 264.724 67.3528C265.617 66.5657 265.451 65.1119 265.415 64.1581C265.256 59.7577 267.812 59.0805 267.184 56.0949C266.692 53.7476 264.848 52.3505 264.504 52.0881C262.763 50.7691 261.586 51.1946 258.657 50.4287C253.732 49.138 253.576 47.0176 250.331 47.007C250.143 47.007 245.729 47.0566 244.229 50.106C243.009 52.5881 244.435 55.602 245.906 57.187C247.814 59.24 249.179 58.2259 251.094 59.9456C254.451 62.9631 251.916 67.5975 255.405 70.7923Z" fill="black"/>
<path d="M245.58 62.9383L245.775 62.7717C246.75 61.9313 247.764 60.9562 248.023 59.6974C249.122 54.3397 254.03 52.3966 254.257 57.3146C254.313 58.5557 258.848 58.4919 258.309 59.7932C256.905 63.1901 256.877 62.2752 258.855 63.5269C259.079 63.5376 259.302 63.5836 259.511 63.6829C260.526 64.1545 260.887 65.5339 260.313 66.7607C259.965 67.5053 259.355 68.0195 258.703 68.2038V73.5722C258.703 75.5827 259.919 77.3946 261.781 78.157L263.593 78.898C263.593 78.898 255.143 84.4118 246.566 78.3591L247.711 77.8449C249.729 76.9407 251.051 74.9657 251.119 72.7567L251.129 71.7071C250.551 71.7568 249.994 71.7178 249.477 71.5688C247.076 70.8703 246.282 68.1081 246.69 64.6687L245.715 64.1439C245.254 63.9028 245.186 63.2787 245.58 62.9383Z" fill="white"/>
<path d="M255.232 81.7099C252.501 81.7099 249.381 80.9972 246.257 78.7917C246.101 78.6818 246.016 78.4974 246.034 78.3059C246.051 78.1144 246.172 77.9513 246.346 77.8733L247.491 77.3592C249.307 76.5436 250.523 74.7317 250.587 72.739L250.59 72.2603C250.143 72.2532 249.721 72.1929 249.328 72.0795C246.913 71.3774 245.754 68.796 246.122 64.9701L245.463 64.6155C245.094 64.4169 244.846 64.0517 244.8 63.6369C244.754 63.222 244.917 62.8107 245.232 62.5377L245.427 62.371C246.31 61.6087 247.275 60.7045 247.502 59.5911C248.253 55.9318 250.668 53.8185 252.477 53.9603C253.831 54.0667 254.696 55.3113 254.785 57.2898C254.884 57.5239 255.983 57.8324 256.508 57.9813C257.565 58.2756 258.476 58.5309 258.785 59.1656C258.912 59.4244 258.916 59.7152 258.799 59.9989C258.593 60.4953 258.419 60.8995 258.274 61.2328C258.068 61.7079 257.873 62.1583 257.841 62.3355C257.919 62.3923 258.086 62.4809 258.235 62.5625C258.448 62.6759 258.707 62.8142 259.026 63.0092C259.277 63.0341 259.515 63.1014 259.738 63.2043C260.377 63.5021 260.83 64.0694 261.025 64.807C261.21 65.509 261.128 66.282 260.799 66.9877C260.462 67.711 259.905 68.2748 259.238 68.5762V73.5722C259.238 75.3771 260.316 76.9833 261.986 77.6641L263.798 78.4052C263.983 78.4796 264.107 78.6498 264.128 78.8484C264.146 79.047 264.054 79.2349 263.89 79.3448C263.827 79.3838 260.171 81.7099 255.232 81.7099ZM247.661 78.4513C253.948 82.3659 260.068 80.0965 262.359 78.969L261.579 78.6498C259.508 77.8024 258.168 75.8096 258.168 73.5722V68.2039C258.168 67.9663 258.324 67.7571 258.554 67.6933C259.086 67.5408 259.561 67.1082 259.831 66.5373C260.054 66.0551 260.111 65.5374 259.99 65.0729C259.88 64.6474 259.628 64.3247 259.284 64.1652C259.146 64.1014 258.994 64.0659 258.831 64.0588C258.738 64.0553 258.646 64.0269 258.568 63.9773C258.231 63.7645 257.955 63.6156 257.731 63.4986C256.43 62.8036 256.629 62.3391 257.295 60.8073C257.437 60.4811 257.607 60.0875 257.809 59.6053C257.625 59.3961 256.717 59.1443 256.221 59.006C255.015 58.6692 253.767 58.3181 253.721 57.3395C253.657 55.9283 253.171 55.0843 252.391 55.0205C251.051 54.9177 249.147 56.8537 248.541 59.8038C248.246 61.2434 247.136 62.3001 246.119 63.1759L245.924 63.3426C245.853 63.4028 245.849 63.4808 245.853 63.5198C245.856 63.5588 245.878 63.6333 245.959 63.6794L246.934 64.2042C247.126 64.307 247.236 64.5198 247.211 64.7361C247.016 66.3707 246.863 70.2604 249.619 71.0618C250.051 71.1894 250.544 71.2285 251.076 71.1788C251.225 71.1646 251.374 71.2178 251.484 71.3171C251.594 71.4199 251.657 71.5618 251.654 71.7142L251.643 72.7638C251.569 75.1714 250.108 77.3521 247.92 78.3307L247.661 78.4513Z" fill="black"/>
<path d="M251.126 72.2426C250.867 72.2426 250.64 72.0547 250.601 71.7923C250.555 71.5016 250.757 71.2321 251.048 71.186C254.09 70.7179 255.476 68.3635 255.49 68.3387C255.639 68.0834 255.962 67.9983 256.217 68.1437C256.473 68.289 256.558 68.6153 256.412 68.8706C256.345 68.984 254.749 71.6966 251.207 72.2391C251.179 72.2391 251.154 72.2426 251.126 72.2426Z" fill="black"/>
<path d="M42.752 52.0386C42.7201 52.0386 42.6917 52.035 42.6598 52.0315L40.6458 51.6769C40.355 51.6273 40.1636 51.3507 40.2132 51.0599C40.2629 50.7692 40.543 50.5777 40.8302 50.6273L42.8442 50.9819C43.135 51.0316 43.3264 51.3081 43.2768 51.5989C43.2307 51.8577 43.0038 52.0386 42.752 52.0386Z" fill="black"/>
<path d="M52.3966 53.744C52.3647 53.744 52.3363 53.7405 52.3044 53.7369L50.2904 53.3823C49.9996 53.3327 49.8082 53.0561 49.8578 52.7654C49.9074 52.4746 50.1876 52.2831 50.4748 52.3328L52.4888 52.6874C52.7796 52.737 52.971 53.0136 52.9214 53.3043C52.8718 53.5632 52.6484 53.744 52.3966 53.744Z" fill="black"/>
<path d="M45.5284 58.506C45.4965 58.506 45.4646 58.5025 45.4326 58.4989C45.1419 58.4457 44.9504 58.1692 45.0036 57.882L45.3618 55.8821C45.4149 55.5914 45.6915 55.3999 45.9787 55.4531C46.2695 55.5063 46.4609 55.7828 46.4077 56.0701L46.0496 58.0699C46.0071 58.3252 45.7837 58.506 45.5284 58.506Z" fill="black"/>
<path d="M47.2446 48.9217C47.2127 48.9217 47.1808 48.9181 47.1489 48.9146C46.8581 48.8614 46.6666 48.5848 46.7198 48.2976L47.0779 46.2978C47.1311 46.007 47.4041 45.8155 47.6949 45.8687C47.9857 45.9219 48.1771 46.1985 48.124 46.4857L47.7658 48.4855C47.7233 48.7408 47.4999 48.9217 47.2446 48.9217Z" fill="black"/>
<path d="M61.5448 25.7888C61.5129 25.7888 61.4845 25.7853 61.4526 25.7817L60.247 25.569C59.9563 25.5193 59.7648 25.2428 59.8145 24.952C59.8641 24.6613 60.1442 24.4698 60.4314 24.5194L61.637 24.7322C61.9278 24.7818 62.1192 25.0584 62.0696 25.3491C62.02 25.608 61.7966 25.7888 61.5448 25.7888Z" fill="black"/>
<path d="M67.3139 26.8101C67.282 26.8101 67.2536 26.8065 67.2217 26.803L66.0161 26.5902C65.7254 26.5406 65.5339 26.264 65.5835 25.9733C65.6332 25.6825 65.9097 25.491 66.2005 25.5407L67.4061 25.7534C67.6968 25.8031 67.8883 26.0796 67.8386 26.3704C67.789 26.6292 67.5656 26.8101 67.3139 26.8101Z" fill="black"/>
<path d="M63.2043 29.6609C63.1724 29.6609 63.1405 29.6573 63.1086 29.6538C62.8178 29.6006 62.6263 29.324 62.6795 29.0368L62.8923 27.8383C62.9455 27.5475 63.2185 27.3561 63.5093 27.4093C63.8 27.4624 63.9915 27.739 63.9383 28.0262L63.7255 29.2247C63.683 29.48 63.4561 29.6609 63.2043 29.6609Z" fill="black"/>
<path d="M64.2326 23.9272C64.2007 23.9272 64.1688 23.9237 64.1369 23.9201C63.8461 23.8669 63.6547 23.5904 63.7078 23.3031L63.9206 22.1047C63.9738 21.8139 64.2468 21.6224 64.5376 21.6756C64.8283 21.7288 65.0198 22.0054 64.9666 22.2926L64.7539 23.4911C64.7078 23.7464 64.4844 23.9272 64.2326 23.9272Z" fill="black"/>
<path d="M69.647 53.3859C68.9449 53.3859 68.2322 53.2122 67.5762 52.8434C66.5869 52.2902 65.8742 51.3861 65.5728 50.2975C65.2714 49.2125 65.4097 48.0778 65.9664 47.0992C67.1152 45.0745 69.7037 44.3547 71.739 45.4965C72.7283 46.0496 73.441 46.9538 73.7424 48.0424C74.0438 49.1274 73.9055 50.262 73.3523 51.2407C72.5687 52.6129 71.1256 53.3859 69.647 53.3859ZM69.6576 46.0177C68.5477 46.0177 67.4698 46.5957 66.8847 47.6239C66.4699 48.3544 66.3671 49.2054 66.5905 50.0138C66.8174 50.8258 67.3493 51.5031 68.0903 51.9179C69.6186 52.7725 71.5581 52.2335 72.4162 50.7194C72.8311 49.989 72.9339 49.138 72.7105 48.3296C72.4836 47.5176 71.9517 46.8403 71.2106 46.4255C70.7213 46.1489 70.1859 46.0177 69.6576 46.0177Z" fill="black"/>
<path d="M111.69 281.917C111.69 280.261 110.349 278.921 108.693 278.921H38.1601C38.1849 280.244 38.0608 282.9 36.6035 285.8C36.3446 286.318 36.0645 286.8 35.7737 287.24C35.3022 287.963 35.2632 288.888 35.6745 289.647C36.0858 290.406 36.88 290.878 37.7452 290.878C61.3958 290.878 85.0464 290.878 108.693 290.878C110.349 290.878 111.69 289.537 111.69 287.881V281.917Z" fill="black"/>
<path d="M21.2855 257.678C10.5204 257.678 1.60625 264.78 0 274.056H5.13434C6.73704 267.33 13.3854 262.284 21.3458 262.284C30.143 262.284 38.1884 268.986 38.1884 277.68H43.0178C43.0178 266.571 32.8803 257.678 21.2855 257.678Z" fill="#92D5EF"/>
<path d="M32.0666 289.407C37.9171 283.557 37.9171 274.071 32.0666 268.221C26.2162 262.37 16.7308 262.37 10.8804 268.221C5.02999 274.071 5.02999 283.557 10.8804 289.407C16.7308 295.257 26.2162 295.258 32.0666 289.407Z" fill="black"/>
<path d="M28.6026 286.473C32.6875 282.388 32.6875 275.765 28.6026 271.68C24.5177 267.595 17.8947 267.595 13.8098 271.68C9.72492 275.765 9.72492 282.388 13.8098 286.473C17.8947 290.558 24.5177 290.558 28.6026 286.473Z" fill="#888889"/>
<path d="M21.2111 288.417C16.1938 288.417 12.109 284.332 12.109 279.315C12.109 274.298 16.1938 270.213 21.2111 270.213C26.2284 270.213 30.3132 274.298 30.3132 279.315C30.3132 284.332 26.232 288.417 21.2111 288.417ZM21.2111 271.277C16.7788 271.277 13.1728 274.883 13.1728 279.315C13.1728 283.747 16.7788 287.353 21.2111 287.353C25.6434 287.353 29.2495 283.747 29.2495 279.315C29.2495 274.883 25.6434 271.277 21.2111 271.277Z" fill="black"/>
<path d="M26.2104 280.198C26.8705 277.402 25.1392 274.6 22.3434 273.94C19.5476 273.28 16.7459 275.011 16.0857 277.807C15.4256 280.603 17.1568 283.404 19.9527 284.065C22.7485 284.725 25.5502 282.994 26.2104 280.198Z" fill="#03608E"/>
<path d="M21.0338 283.173C18.6546 283.173 16.7186 281.237 16.7186 278.857C16.7186 276.478 18.6546 274.542 21.0338 274.542C23.4131 274.542 25.3491 276.478 25.3491 278.857C25.3491 281.237 23.4131 283.173 21.0338 283.173ZM21.0338 275.609C19.2396 275.609 17.7823 277.067 17.7823 278.861C17.7823 280.652 19.2396 282.112 21.0338 282.112C22.8245 282.112 24.2853 280.655 24.2853 278.861C24.2853 277.067 22.828 275.609 21.0338 275.609Z" fill="white"/>
<path d="M109.502 280.868H21.9805C21.0338 280.868 20.2679 280.102 20.2679 279.155C20.2679 278.208 21.0338 277.443 21.9805 277.443H109.502C110.449 277.443 111.215 278.208 111.215 279.155C111.218 280.102 110.449 280.868 109.502 280.868Z" fill="#03608E"/>
<path d="M101.878 280.868L124.692 227.092L124.455 218.816L98.2156 280.513L101.878 280.868Z" fill="#03608E"/>
<path d="M142.43 282.406C144.331 274.353 139.345 266.285 131.293 264.383C123.241 262.482 115.172 267.468 113.271 275.52C111.369 283.572 116.356 291.641 124.408 293.543C132.46 295.444 140.529 290.458 142.43 282.406Z" fill="black"/>
<path d="M127.586 289.658C133.363 289.658 138.046 284.975 138.046 279.198C138.046 273.421 133.363 268.737 127.586 268.737C121.809 268.737 117.125 273.421 117.125 279.198C117.125 284.975 121.809 289.658 127.586 289.658Z" fill="#888889"/>
<path d="M127.586 288.534C122.568 288.534 118.483 284.449 118.483 279.432C118.483 274.414 122.568 270.33 127.586 270.33C132.603 270.33 136.688 274.414 136.688 279.432C136.688 284.449 132.606 288.534 127.586 288.534ZM127.586 271.393C123.153 271.393 119.547 275 119.547 279.432C119.547 283.864 123.153 287.47 127.586 287.47C132.018 287.47 135.624 283.864 135.624 279.432C135.624 275 132.018 271.393 127.586 271.393Z" fill="black"/>
<path d="M127.763 258.1C117.225 258.1 108.495 265.05 106.924 274.134H111.952C113.523 267.55 120.029 262.61 127.823 262.61C136.436 262.61 143.478 268.642 144.02 276.262H148.839C148.364 266.16 139.113 258.1 127.763 258.1Z" fill="white"/>
<path d="M126.348 282.818C125.174 282.818 124.22 281.864 124.22 280.691V141.872H129.185V279.981C129.185 281.549 127.912 282.818 126.348 282.818Z" fill="#03608E"/>
<path d="M132.589 280.32C133.249 277.525 131.518 274.723 128.722 274.063C125.926 273.403 123.125 275.134 122.464 277.93C121.804 280.725 123.536 283.527 126.331 284.187C129.127 284.847 131.929 283.116 132.589 280.32Z" fill="#03608E"/>
<path d="M127.408 283.29C125.029 283.29 123.093 281.354 123.093 278.974C123.093 276.595 125.029 274.659 127.408 274.659C129.787 274.659 131.723 276.595 131.723 278.974C131.723 281.357 129.787 283.29 127.408 283.29ZM127.408 275.726C125.614 275.726 124.157 277.184 124.157 278.978C124.157 280.768 125.614 282.229 127.408 282.229C129.199 282.229 130.66 280.772 130.66 278.978C130.66 277.184 129.202 275.726 127.408 275.726Z" fill="white"/>
<path d="M84.4965 257.479C84.4965 257.479 81.6776 265.837 83.7802 269.986L84.3334 271.681L70.6146 267.401L71.6748 266.05C73.5612 263.646 74.7987 260.876 75.2916 257.972L84.4965 257.479Z" fill="white"/>
<path d="M85.1561 272.496L69.7177 267.681L71.253 265.723C73.0755 263.401 74.2882 260.688 74.7633 257.884L74.8343 257.465L85.2519 256.909L85.0001 257.65C84.9717 257.731 82.2769 265.848 84.2519 269.748L84.2838 269.822L85.1561 272.496ZM71.5047 267.121L83.5073 270.865L83.2875 270.188C81.4933 266.578 83.1173 260.224 83.7626 258.05L75.7384 258.479C75.1888 261.309 73.9336 264.029 72.0933 266.376L71.5047 267.121Z" fill="black"/>
<path d="M86.0071 264.298L87.1878 266.146C89.528 269.801 92.7264 272.837 96.4991 274.982L99.3996 276.631C99.6762 276.787 99.857 277.07 99.8818 277.389L99.896 277.549C100.038 279.34 97.4281 282.953 90.9287 283.29C86.9077 283.499 77.724 282.577 67.4199 276.623C66.7674 276.248 66.4377 275.492 66.6043 274.762C67.2142 272.088 68.9198 265.756 71.8699 262.958C72.1997 262.646 72.7209 262.674 72.9975 263.032L75.6533 266.479C76.8447 268.025 79.0679 268.309 80.6103 267.11L84.5462 264.046C85.0107 263.685 85.6879 263.802 86.0071 264.298Z" fill="white"/>
<path d="M89.9324 283.846C86.6631 283.846 77.7454 283.204 67.1541 277.084C66.296 276.588 65.8669 275.606 66.0868 274.641C66.6966 271.978 68.4412 265.475 71.5083 262.571C71.7778 262.316 72.143 262.188 72.5083 262.213C72.8664 262.241 73.1997 262.422 73.4195 262.706L76.0789 266.153C76.5682 266.787 77.2774 267.191 78.0716 267.294C78.8694 267.394 79.6531 267.181 80.2878 266.688L84.2236 263.624C84.564 263.358 85.0002 263.249 85.4257 263.323C85.8512 263.397 86.227 263.646 86.4575 264.007L87.6382 265.855C89.9253 269.425 93.0811 272.422 96.7652 274.517L99.6656 276.166C100.095 276.411 100.375 276.85 100.414 277.343L100.428 277.503C100.499 278.403 100.045 279.488 99.1834 280.474C98.1835 281.616 95.7865 283.57 90.9571 283.821C90.7266 283.836 90.3827 283.846 89.9324 283.846ZM72.4019 263.277C72.3593 263.277 72.2955 263.288 72.2352 263.344C69.3808 266.05 67.7072 272.315 67.1222 274.882C67.0051 275.389 67.2321 275.904 67.6859 276.166C79.4829 282.981 89.092 282.857 90.9004 282.761C95.3362 282.531 97.4921 280.793 98.3821 279.776C99.1657 278.882 99.4033 278.063 99.3678 277.591L99.3536 277.432C99.343 277.29 99.2614 277.162 99.1373 277.095L96.2369 275.446C92.4038 273.265 89.1204 270.149 86.7411 266.433L85.5604 264.585C85.4895 264.472 85.376 264.397 85.2448 264.376C85.1136 264.355 84.9824 264.387 84.8761 264.468L80.9402 267.532C80.0821 268.198 79.0184 268.493 77.9369 268.354C76.859 268.216 75.8981 267.667 75.235 266.808L72.5792 263.362C72.5295 263.298 72.4692 263.284 72.4267 263.28C72.416 263.277 72.409 263.277 72.4019 263.277Z" fill="black"/>
<path d="M83.2059 277.432C83.135 277.432 83.0641 277.428 82.9896 277.418L80.6458 277.223C76.1852 276.57 74.0648 275.233 70.5438 273.021L67.5866 271.166C67.3384 271.01 67.2639 270.681 67.4199 270.432C67.5759 270.184 67.9057 270.11 68.1539 270.266L71.1111 272.12C74.625 274.333 76.5611 275.549 80.7664 276.166L83.1102 276.361C83.2804 276.386 83.4116 276.34 83.5073 276.24C83.603 276.141 83.6456 276.006 83.6208 275.872L83.3903 274.581C83.2946 274.042 83.5144 273.521 83.9718 273.216C84.4257 272.911 84.9966 272.907 85.454 273.202L86.578 273.921C89.7799 275.978 93.7334 276.641 97.4282 275.741L98.1586 275.563C98.4423 275.492 98.733 275.67 98.8004 275.953C98.8713 276.24 98.694 276.528 98.4104 276.595L97.6799 276.772C93.7015 277.74 89.4466 277.024 86.0036 274.811L84.8795 274.092C84.7342 274 84.6101 274.063 84.564 274.095C84.5179 274.127 84.4079 274.219 84.4399 274.386L84.6703 275.677C84.7554 276.145 84.6065 276.631 84.2768 276.974C83.9931 277.269 83.6066 277.432 83.2059 277.432Z" fill="black"/>
<path d="M41.6669 236.549C41.6669 236.549 35.7313 243.087 35.6852 247.739L35.4157 249.516L28.4127 245.225L25.2888 238.449L26.888 237.963C29.4871 236.517 32.1606 235.758 33.8201 233.29L41.6669 236.549Z" fill="white"/>
<path d="M35.8198 250.388L27.9942 245.598L24.5477 238.119L26.6787 237.474C27.317 237.119 27.9623 236.807 28.5828 236.503C30.4479 235.595 32.2066 234.733 33.3767 232.996L33.6179 232.634L42.5675 236.346L42.0605 236.907C42.0037 236.971 36.2595 243.349 36.2169 247.746L36.2099 247.821L35.8198 250.388ZM28.8275 244.856L35.0114 248.643L35.1567 247.693C35.2206 243.658 39.3302 238.467 40.7804 236.754L34.0079 233.946C32.6995 235.68 30.9231 236.545 29.0509 237.46C28.4268 237.765 27.7779 238.08 27.1468 238.431L27.0404 238.478L26.0263 238.786L28.8275 244.856Z" fill="black"/>
<path d="M37.7948 245.608L37.4261 247.768C36.6921 252.047 37.0112 256.441 38.3515 260.572L39.3833 263.745C39.4826 264.046 39.4223 264.38 39.2309 264.628L39.1316 264.756C38.0324 266.174 33.6675 267.085 28.636 262.954C25.5227 260.398 19.3601 253.533 15.754 242.19C15.5271 241.474 15.7895 240.694 16.4065 240.265C18.6581 238.701 24.186 235.169 28.253 235.091C28.7069 235.081 29.0721 235.456 29.0331 235.907L28.6714 240.247C28.5119 242.194 29.9621 243.899 31.9088 244.052L36.88 244.442C37.4721 244.484 37.8941 245.027 37.7948 245.608Z" fill="white"/>
<path d="M35.8092 266.486C34.1392 266.486 31.4479 265.958 28.2957 263.373C26.8561 262.192 19.463 255.629 15.2471 242.357C14.9457 241.41 15.2896 240.396 16.1051 239.832C18.3496 238.275 24.0229 234.648 28.2425 234.563C28.6112 234.556 28.9694 234.705 29.2211 234.974C29.4693 235.237 29.5934 235.595 29.5615 235.953L29.2034 240.289C29.136 241.087 29.3878 241.864 29.9054 242.477C30.4267 243.087 31.1536 243.459 31.9514 243.52L36.9226 243.91C37.3517 243.942 37.7488 244.158 38.0147 244.498C38.2807 244.839 38.3906 245.275 38.3161 245.7L37.9474 247.86C37.2311 252.037 37.5467 256.377 38.8551 260.408L39.8869 263.582C40.0394 264.054 39.9508 264.564 39.6458 264.958L39.5465 265.085C38.9934 265.802 37.9261 266.295 36.6248 266.44C36.3908 266.468 36.1177 266.486 35.8092 266.486ZM28.2637 235.627C28.2637 235.627 28.2602 235.627 28.2567 235.627C24.3243 235.705 18.8673 239.204 16.7044 240.704C16.2789 241.002 16.098 241.534 16.2541 242.034C20.3814 255.019 27.5652 261.401 28.9658 262.55C32.4017 265.369 35.1639 265.536 36.5042 265.387C37.685 265.252 38.4154 264.809 38.7026 264.436L38.8019 264.309C38.887 264.195 38.9154 264.05 38.8693 263.915L37.8374 260.742C36.4758 256.547 36.1461 252.03 36.8907 247.683L37.2595 245.523C37.2807 245.392 37.2488 245.261 37.1673 245.154C37.0857 245.048 36.9652 244.984 36.8304 244.974L31.8592 244.583C30.7742 244.498 29.792 243.995 29.0864 243.169C28.3807 242.343 28.0439 241.289 28.1325 240.204L28.4907 235.868C28.4978 235.79 28.4623 235.737 28.4339 235.705C28.4162 235.673 28.3595 235.627 28.2637 235.627Z" fill="black"/>
<path d="M38.9259 263.117C38.8408 263.117 38.7522 263.096 38.6706 263.054L38.0111 262.692C34.4227 260.728 31.7563 257.331 30.7032 253.377L30.3592 252.086C30.3167 251.92 30.1784 251.884 30.1216 251.874C30.0649 251.863 29.9231 251.859 29.8344 252.005L29.1359 253.115C28.8806 253.519 28.4445 253.778 27.9693 253.806C27.4942 253.834 27.0297 253.632 26.7248 253.264C23.7179 249.587 21.5443 245.403 20.2678 240.825L19.5551 238.268C19.4771 237.985 19.6402 237.69 19.9239 237.612C20.2076 237.534 20.5019 237.697 20.5799 237.981L21.2926 240.538C22.5265 244.973 24.6327 249.026 27.5474 252.59C27.636 252.696 27.7601 252.753 27.902 252.746C28.0403 252.739 28.1608 252.664 28.2353 252.547L28.9338 251.438C29.2246 250.973 29.7422 250.739 30.2812 250.821C30.8202 250.902 31.2457 251.281 31.3875 251.81L31.7315 253.1C32.7136 256.774 35.1886 259.93 38.5252 261.756L39.1848 262.117C39.4436 262.259 39.5358 262.582 39.3975 262.841C39.2982 263.018 39.1138 263.117 38.9259 263.117Z" fill="black"/>
<path d="M70.6149 133.745L107.169 137.681C107.169 137.681 118.962 174.036 105.836 215.515C98.2085 239.616 87.9114 253.59 85.7414 257.997C85.1492 259.203 83.8834 259.923 82.543 259.82L76.3201 259.33C74.4763 259.185 73.1147 257.547 73.3168 255.707C74.8734 241.484 87.805 189.244 85.1031 183.01C85.1031 183.01 82.2629 206.147 60.9774 225.443C55.4565 230.45 49.0138 237.403 40.6776 241.02C39.6386 241.47 38.426 241.172 37.7204 240.286L33.5647 235.095C32.8945 234.258 32.8342 233.088 33.4087 232.187C39.6209 222.475 68.0832 178.454 70.6149 133.745Z" fill="#0185D4"/>
<path d="M102.942 152.864L144.428 130.525L146.91 135.489L106.133 158.183L102.942 152.864Z" fill="#03608E"/>
<path d="M103.233 153.226L105.995 157.828C106.144 158.076 106.463 158.161 106.718 158.019L117.42 152.063C117.693 151.91 117.781 151.555 117.611 151.297C116.643 149.825 115.597 148.428 114.572 147.013C114.413 146.797 114.119 146.726 113.885 146.854L103.446 152.474C103.169 152.623 103.077 152.963 103.233 153.226Z" fill="black"/>
<path d="M144.655 130.164L134.408 135.681C134.039 135.879 133.915 136.351 134.142 136.702C134.979 138.007 135.627 139.407 136.237 140.822C136.408 141.216 136.879 141.375 137.255 141.166L147.403 135.518C147.743 135.33 147.871 134.908 147.697 134.56L145.651 130.468C145.464 130.11 145.017 129.969 144.655 130.164Z" fill="black"/>
<path d="M111.629 108.453C113.328 119.65 114.704 124.285 117.363 130.171L134.383 135.372C137.414 135.755 139.545 136.429 141.591 136.908L143.127 139.744C145.24 137.745 146.556 135.589 145.726 133.007C143.137 131.447 140.421 131.263 137.57 132.536C134.032 130.511 126.742 125.224 123.504 124.852L121.065 105.662L111.629 108.453Z" fill="white"/>
<path d="M143.13 140.276C143.102 140.276 143.074 140.273 143.045 140.269C142.882 140.244 142.74 140.141 142.662 139.996L141.24 137.369C140.804 137.266 140.365 137.152 139.914 137.035C138.343 136.635 136.567 136.181 134.319 135.897C134.291 135.894 134.259 135.886 134.23 135.879L117.21 130.678C117.065 130.632 116.944 130.529 116.881 130.387C114.321 124.721 112.881 120.217 111.108 108.53C111.069 108.268 111.229 108.016 111.484 107.942L120.923 105.148C121.072 105.105 121.235 105.126 121.366 105.212C121.497 105.297 121.582 105.435 121.604 105.591L123.99 124.391C126.543 124.919 130.833 127.66 134.319 129.883C135.539 130.663 136.698 131.401 137.613 131.936C140.503 130.727 143.325 130.933 146.009 132.546C146.119 132.614 146.201 132.716 146.24 132.841C147.275 136.067 145.173 138.546 143.499 140.127C143.396 140.227 143.265 140.276 143.13 140.276ZM134.496 134.851C136.787 135.145 138.588 135.603 140.177 136.011C140.705 136.145 141.212 136.276 141.716 136.393C141.864 136.429 141.989 136.525 142.063 136.659L143.261 138.876C145.162 136.918 145.79 135.191 145.283 133.365C142.861 131.968 140.411 131.858 137.794 133.025C137.638 133.092 137.461 133.085 137.312 133C136.344 132.443 135.081 131.639 133.745 130.788C130.156 128.497 125.688 125.643 123.451 125.387C123.206 125.359 123.015 125.167 122.983 124.926L120.625 106.353L112.228 108.835C113.927 119.913 115.328 124.338 117.753 129.738L134.496 134.851Z" fill="black"/>
<path d="M76.9406 83.1318C86.9291 80.1924 94.6874 82.2241 94.6874 82.2241C94.9711 82.2383 95.2512 82.256 95.5277 82.2773C105.999 83.068 114.977 89.7767 119.076 99.2689C120.122 101.694 120.536 102.297 121.38 104.956L123.153 110.438L113.7 121.661C113.7 121.661 112.814 120.203 112.828 121.568C112.828 121.568 113.126 138.028 107.754 137.737L66.5052 137.085L67.0903 134.695C68.7675 128.146 69.2284 121.342 68.42 114.629C68.1505 112.406 67.7995 110.091 67.3456 107.818C67.0052 106.126 63.6012 87.0571 76.9406 83.1318Z" fill="black"/>
<path d="M87.8758 106.236C87.8617 106.236 87.8475 106.236 87.8333 106.236C87.539 106.215 87.3227 105.956 87.344 105.666L88.0531 96.6237C88.0744 96.3294 88.3297 96.1131 88.624 96.1344C88.9183 96.1557 89.1346 96.4145 89.1133 96.7052L88.4042 105.747C88.3829 106.027 88.1489 106.236 87.8758 106.236Z" fill="#AEAEAF"/>
<path d="M112.516 118.824C112.25 118.824 112.019 118.622 111.988 118.349L110.215 102.215C110.183 101.925 110.392 101.662 110.686 101.63C110.977 101.598 111.239 101.808 111.275 102.102L113.048 118.235C113.08 118.526 112.87 118.788 112.576 118.82C112.555 118.824 112.537 118.824 112.516 118.824Z" fill="#AEAEAF"/>
<path d="M103.8 55.3858C102.265 56.9956 102.088 59.4599 103.488 61.1868C105.031 63.0838 106.655 65.6651 107.179 68.5514C108.268 74.5403 104.172 77.1323 96.3717 74.324C88.5709 71.5157 87.961 72.6929 79.7453 74.1822C71.5297 75.6714 69.0724 72.8348 70.7744 66.3707C72.4764 59.9067 81.6991 54.0419 85.3406 53.7795C85.6633 53.7547 86.2732 53.5845 87.11 53.2973C90.4395 52.152 91.6699 50.3259 93.262 49.4111C97.2227 47.1382 104.601 49.8543 104.96 52.7264C105.059 53.5242 104.722 54.4178 103.8 55.3858Z" fill="black"/>
<path d="M88.2588 47.1347C89.865 49.4962 90.1238 53.1023 88.585 54.1483C87.0461 55.1943 84.291 53.2831 82.6847 50.9216C81.0785 48.5601 81.2345 46.6453 82.7734 45.5993C84.3123 44.5533 86.6525 44.7731 88.2588 47.1347Z" fill="black"/>
<path d="M85.8087 62.2681C86.337 62.0518 86.9469 62.2114 87.4894 62.6227C87.9504 61.637 88.4291 60.8321 88.4291 60.8321C89.4715 56.4246 97.7475 57.1657 97.7475 57.1657L98.0489 57.2544C98.7403 59.0556 99.18 60.6548 99.4317 62.0731C99.4991 62.4561 99.6516 62.8213 99.8927 63.1262L100.928 64.4559C101.283 64.9098 101.176 65.5693 100.698 65.892L99.6906 66.5657C99.8714 72.5049 96.4816 72.1468 96.4816 72.1468C95.9817 72.1291 95.5065 72.0759 95.0526 72.0014C95.2902 75.2139 96.5277 81.2737 102.343 83.4863C102.96 83.7203 103.009 84.5713 102.41 84.8479C99.2793 86.2839 91.8862 88.571 82.8018 83.8763C82.1459 83.5359 82.192 82.5928 82.8763 82.3055C85.2378 81.3127 88.773 78.1747 88.539 68.2606C88.273 67.9521 88.0426 67.6578 87.8511 67.3954C86.8973 67.7322 85.6882 66.9202 85.1208 65.5374C84.5393 64.1297 84.8478 62.6653 85.8087 62.2681Z" fill="white"/>
<path d="M93.7797 87.2059C90.5459 87.2059 86.7164 86.5038 82.5536 84.3515C82.0678 84.0998 81.7806 83.6069 81.8019 83.0609C81.8232 82.5113 82.1529 82.0326 82.6671 81.8198C84.7449 80.9476 88.1879 78.0506 88.0071 68.4663C87.8723 68.3067 87.7447 68.1507 87.6277 67.9947C86.4859 68.1294 85.2307 67.2146 84.6279 65.7466C84.3088 64.9666 84.2131 64.1368 84.3655 63.417C84.5322 62.6334 84.9825 62.0377 85.6066 61.7789C86.1172 61.5697 86.7022 61.6051 87.266 61.8711C87.5674 61.2718 87.8298 60.8073 87.9291 60.6371C89.1382 55.9247 97.439 56.6126 97.7935 56.6445C97.829 56.6481 97.8609 56.6552 97.8928 56.6623L98.1942 56.7509C98.3538 56.797 98.485 56.914 98.5452 57.07C99.2083 58.7933 99.6834 60.4492 99.9529 61.9845C100.006 62.293 100.13 62.5767 100.308 62.8036L101.343 64.1333C101.602 64.4666 101.712 64.8956 101.644 65.314C101.577 65.7325 101.336 66.1048 100.985 66.3388L100.219 66.8494C100.247 69.179 99.726 70.8562 98.6764 71.8313C97.7084 72.7284 96.6305 72.6964 96.4426 72.6823C96.1766 72.6752 95.9071 72.6539 95.6306 72.6255C95.9852 75.916 97.3857 81.0433 102.52 82.997C103.009 83.1814 103.336 83.6388 103.353 84.1565C103.371 84.6707 103.091 85.1245 102.619 85.3408C101.013 86.0748 97.8786 87.2059 93.7797 87.2059ZM87.8475 66.8671C88.0142 66.8671 88.1773 66.9451 88.2801 67.087C88.4716 67.3493 88.6985 67.6366 88.9396 67.9167C89.0212 68.0089 89.0673 68.1294 89.0708 68.2535C89.3155 78.618 85.4222 81.8163 83.0819 82.802C82.8976 82.88 82.8727 83.0396 82.8692 83.107C82.8656 83.1708 82.8798 83.3233 83.0465 83.4119C91.7373 87.9044 98.7686 85.9401 102.187 84.3728C102.286 84.3267 102.304 84.2487 102.3 84.192C102.3 84.1494 102.283 84.0395 102.151 83.9899C96.1093 81.6922 94.776 75.5225 94.5172 72.0476C94.5066 71.8845 94.5668 71.7249 94.6874 71.615C94.808 71.505 94.9711 71.4554 95.1306 71.4838C95.6093 71.5618 96.0561 71.6079 96.4922 71.6221C96.5064 71.6221 96.517 71.6221 96.5312 71.6256C96.556 71.6256 97.2971 71.6823 97.9744 71.037C98.8112 70.2427 99.2189 68.7074 99.1516 66.587C99.1445 66.4026 99.2367 66.2289 99.3891 66.1296L100.396 65.4559C100.503 65.385 100.573 65.275 100.595 65.1474C100.616 65.0197 100.584 64.8921 100.503 64.7893L99.4671 63.4596C99.1835 63.0944 98.9885 62.6511 98.9034 62.1725C98.6552 60.7754 98.2332 59.272 97.6446 57.7012C96.9602 57.6515 89.8261 57.226 88.9432 60.9633C88.9325 61.0165 88.9113 61.0662 88.8829 61.1123C88.8793 61.1193 88.4148 61.9065 87.9681 62.8568C87.9007 63.0022 87.7695 63.1086 87.6135 63.1476C87.4575 63.1866 87.2908 63.1511 87.1632 63.0554C86.7483 62.7398 86.3264 62.637 86.0072 62.7682C85.6066 62.9348 85.4541 63.3851 85.4009 63.6404C85.2945 64.1475 85.369 64.768 85.6066 65.346C86.0498 66.4274 86.993 67.1401 87.6667 66.9026C87.7305 66.8778 87.7872 66.8671 87.8475 66.8671Z" fill="black"/>
<path d="M95.0491 72.5333C95.0278 72.5333 95.003 72.5333 94.9782 72.5298C91.3366 72.0582 90.4111 69.9059 90.3757 69.8172C90.2622 69.5442 90.3934 69.2357 90.6665 69.1222C90.9359 69.0123 91.2444 69.1364 91.3579 69.4059C91.3933 69.4839 92.138 71.0866 95.1165 71.4731C95.4072 71.5121 95.6129 71.778 95.5739 72.0688C95.542 72.3383 95.315 72.5333 95.0491 72.5333Z" fill="black"/>
<path d="M87.1634 105.882L73.6326 111.144L75.2034 114.409L81.5787 131.131C81.8695 131.894 82.3766 132.557 83.0361 133.039L102.34 147.098C105.556 150.286 110.31 152.183 116.952 152.513C115.583 148.283 112.147 145.113 105.47 143.616L91.0673 126.628L87.1634 105.882Z" fill="white"/>
<path d="M116.948 153.041C116.941 153.041 116.93 153.041 116.923 153.041C110.417 152.718 105.392 150.853 101.992 147.503L82.7204 133.468C81.9757 132.926 81.4084 132.181 81.0786 131.319L74.7139 114.619L73.1502 111.371C73.0864 111.236 73.0793 111.083 73.136 110.945C73.1892 110.807 73.2991 110.697 73.4374 110.644L86.9718 105.385C87.1207 105.329 87.2838 105.339 87.4221 105.417C87.5604 105.495 87.6561 105.63 87.688 105.782L91.5636 126.387L105.761 143.131C112.097 144.591 115.923 147.605 117.455 152.343C117.508 152.509 117.476 152.69 117.37 152.828C117.271 152.967 117.115 153.041 116.948 153.041ZM74.3593 111.431L75.6819 114.179C75.689 114.193 75.6961 114.207 75.6996 114.221L82.075 130.944C82.3303 131.614 82.77 132.188 83.348 132.61L102.651 146.669C102.673 146.683 102.694 146.701 102.712 146.722C105.782 149.765 110.31 151.52 116.175 151.935C114.594 147.971 111.044 145.414 105.353 144.138C105.24 144.113 105.141 144.052 105.063 143.964L90.6594 126.976C90.5992 126.905 90.5602 126.82 90.5424 126.731L86.759 106.619L74.3593 111.431Z" fill="black"/>
<path d="M225.603 7.13788L172.589 24.8599C170.033 25.7144 168.653 28.4802 169.508 31.0331L176.844 52.9782C177.699 55.5347 180.464 56.914 183.017 56.0595L222.713 42.7911L237.254 47.8119L234.283 38.9226L236.031 38.3375C238.587 37.483 239.967 34.7172 239.112 32.1643L231.776 10.2192C230.925 7.66267 228.159 6.28334 225.603 7.13788Z" fill="#92D5EF"/>
<path d="M183.925 52.5811C181.369 52.5811 179.089 50.7585 178.606 48.1559L174.387 25.4059C173.844 22.4735 175.787 19.644 178.72 19.0979L233.68 8.90015C236.612 8.35409 239.442 10.3007 239.988 13.2331L244.208 35.9831C244.47 37.405 244.165 38.8446 243.346 40.036C242.527 41.2274 241.293 42.0287 239.871 42.2911L238.584 42.5287L240.197 51.2195C240.233 51.418 240.155 51.6201 239.992 51.7443C239.828 51.8648 239.612 51.8825 239.431 51.7903L225.886 44.8831L209.391 47.9431C209.1 47.9963 208.824 47.8049 208.771 47.5176C208.717 47.2304 208.909 46.9503 209.196 46.8971L225.869 43.8052C225.986 43.7839 226.103 43.8016 226.209 43.8548L238.953 50.3543L237.442 42.2025C237.389 41.9152 237.58 41.6351 237.868 41.5819L239.68 41.2451C240.821 41.0323 241.811 40.3905 242.47 39.4332C243.126 38.4758 243.374 37.3199 243.162 36.1781L238.942 13.4282C238.506 11.0702 236.229 9.51003 233.875 9.94616L178.915 20.1439C176.557 20.5801 174.997 22.8565 175.433 25.2109L179.652 47.9609C180.089 50.3188 182.365 51.879 184.719 51.4429L191.336 50.216C191.623 50.1628 191.903 50.3543 191.956 50.6415C192.01 50.9287 191.818 51.2088 191.531 51.262L184.914 52.4889C184.581 52.5492 184.251 52.5811 183.925 52.5811Z" fill="black"/>
<path d="M199.151 50.0138C198.814 50.0138 198.516 49.7762 198.456 49.4323C198.385 49.0458 198.64 48.677 199.023 48.6061L201.924 48.0671C202.31 47.9962 202.679 48.2515 202.75 48.6345C202.821 49.0209 202.565 49.3897 202.182 49.4606L199.282 49.9996C199.239 50.0102 199.193 50.0138 199.151 50.0138Z" fill="black"/>
<path d="M163.221 78.5788C163.132 78.5788 163.044 78.5575 162.962 78.5114L138.851 65.0373C138.595 64.8955 138.503 64.5693 138.645 64.314C138.787 64.0587 139.113 63.9665 139.368 64.1083L163.48 77.5824C163.735 77.7243 163.827 78.0505 163.686 78.3058C163.59 78.4831 163.409 78.5788 163.221 78.5788Z" fill="black"/>
<path d="M170.316 72.5511C170.15 72.5511 169.983 72.4731 169.88 72.3242L152.151 47.1489C151.981 46.9078 152.041 46.578 152.279 46.4078C152.516 46.2376 152.85 46.2979 153.02 46.5354L170.749 71.7107C170.919 71.9519 170.859 72.2816 170.621 72.4518C170.529 72.5227 170.419 72.5511 170.316 72.5511Z" fill="black"/>
<path d="M166.767 75.7422C166.636 75.7422 166.501 75.6926 166.398 75.5933L148.669 58.5734C148.456 58.3713 148.449 58.0344 148.655 57.8217C148.861 57.6089 149.194 57.6019 149.407 57.8075L167.136 74.8274C167.348 75.0295 167.356 75.3664 167.15 75.5791C167.047 75.6891 166.909 75.7422 166.767 75.7422Z" fill="black"/>
</svg>
